<svg width="2682" height="2020" xmlns="http://www.w3.org/2000/svg" xmlns:xlink="http://www.w3.org/1999/xlink" xml:space="preserve" overflow="hidden"><g transform="translate(-1337 -254)"><rect x="1394.5" y="417.5" width="1175" height="756" stroke="#000000" stroke-width="4.58333" stroke-miterlimit="8" fill="none"/><path d="M1397 958C1582.99 956.567 1768.98 955.134 1895.64 865.134 2022.31 775.134 2089.65 596.567 2157 418" stroke="#000000" stroke-width="2.29167" stroke-miterlimit="8" fill="none" fill-rule="evenodd"/><path d="M1397 731C1497.98 724.703 1598.97 718.406 1668.97 665.739 1738.97 613.073 1777.98 514.036 1817 415" stroke="#000000" stroke-width="2.29167" stroke-miterlimit="8" fill="none" fill-rule="evenodd"/><text font-family="Calibri,Calibri_MSFontService,sans-serif" font-weight="400" font-size="64" transform="matrix(1 0 0 1 1671.87 1141)">western boundary layer</text><text font-family="Calibri Light,Calibri Light_MSFontService,sans-serif" font-weight="300" font-size="73" transform="matrix(1 0 0 1 1477.73 522)">High</text><rect x="1397.5" y="1360.5" width="1176" height="757" stroke="#000000" stroke-width="4.58333" stroke-miterlimit="8" fill="none"/><path d="M1401 1902C1586.74 1900.57 1772.49 1899.13 1898.99 1809.13 2025.49 1719.13 2092.74 1540.57 2160 1362" stroke="#000000" stroke-width="2.29167" stroke-miterlimit="8" fill="none" fill-rule="evenodd"/><path d="M1401 1675C1501.74 1668.7 1602.49 1662.41 1672.32 1609.74 1742.15 1557.07 1781.08 1458.04 1820 1359" stroke="#000000" stroke-width="2.29167" stroke-miterlimit="8" fill="none" fill-rule="evenodd"/><text font-family="Calibri,Calibri_MSFontService,sans-serif" font-weight="400" font-size="64" transform="matrix(1 0 0 1 1682.6 2092)">eastern boundary layer</text><path d="M2016 730 1995 730 1995 826 1953 826 1953 730 1932 730 1974 688Z" fill-rule="evenodd"/><path d="M1941 554C1941 535.222 1956.22 520 1975 520 1993.78 520 2009 535.222 2009 554 2009 572.778 1993.78 588 1975 588 1956.22 588 1941 572.778 1941 554Z" stroke="#000000" stroke-width="10.3125" stroke-miterlimit="8" fill="#FFFFFF" fill-rule="evenodd"/><path d="M1963 553.5C1963 547.149 1968.15 542 1974.5 542 1980.85 542 1986 547.149 1986 553.5 1986 559.851 1980.85 565 1974.5 565 1968.15 565 1963 559.851 1963 553.5Z" stroke="#000000" stroke-width="10.3125" stroke-miterlimit="8" fill-rule="evenodd"/><path d="M1937 975C1937 953.461 1954.68 936 1976.5 936 1998.32 936 2016 953.461 2016 975 2016 996.539 1998.32 1014 1976.5 1014 1954.68 1014 1937 996.539 1937 975Z" stroke="#000000" stroke-width="10.3125" stroke-miterlimit="8" fill="#FFFFFF" fill-rule="evenodd"/><path d="M1950.92 953.917 1953.23 951.677 1976.5 975.687 1999.77 951.677 2002.08 953.917 1978.74 978 2002.08 1002.08 1999.77 1004.32 1976.5 980.313 1953.23 1004.32 1950.92 1002.08 1974.26 978Z" stroke="#000000" stroke-width="4.58333" stroke-miterlimit="8" fill-rule="evenodd"/><rect x="2786.5" y="416.5" width="1176" height="756" stroke="#000000" stroke-width="4.58333" stroke-miterlimit="8" fill="none"/><path d="M2789 957C2974.99 955.567 3160.98 870.717 3287.64 780.717 3414.31 690.717 3481.65 595.567 3549 417" stroke="#000000" stroke-width="2.29167" stroke-miterlimit="8" fill="none" fill-rule="evenodd"/><path d="M2789 730C2889.98 723.703 2990.97 717.406 3060.97 664.739 3130.97 612.073 3169.98 513.036 3209 414" stroke="#000000" stroke-width="2.29167" stroke-miterlimit="8" fill="none" fill-rule="evenodd"/><text font-family="Calibri,Calibri_MSFontService,sans-serif" font-weight="400" font-size="64" transform="matrix(1 0 0 1 3103.22 1141)">western boundary layer</text><rect x="2789.5" y="1359.5" width="1176" height="756" stroke="#000000" stroke-width="4.58333" stroke-miterlimit="8" fill="none"/><path d="M2793 1900.68C2978.99 1899.25 3262.28 1967.29 3388.95 1877.34 3515.61 1787.39 3485.65 1539.46 3553 1361" stroke="#000000" stroke-width="2.29167" stroke-miterlimit="8" fill="none" fill-rule="evenodd"/><path d="M2793 1674C2893.74 1667.68 2994.49 1661.37 3064.32 1608.53 3134.15 1555.7 3173.08 1456.35 3212 1357" stroke="#000000" stroke-width="2.29167" stroke-miterlimit="8" fill="none" fill-rule="evenodd"/><text font-family="Calibri,Calibri_MSFontService,sans-serif" font-weight="400" font-size="64" transform="matrix(1 0 0 1 3110.38 2088)">eastern boundary layer</text><path d="M1455.4 2177.08C1453.54 2177.08 1451.98 2177.63 1450.72 2178.74 1449.46 2179.85 1448.45 2181.44 1447.68 2183.52 1446.91 2185.6 1446.36 2188.14 1446.04 2191.12 1445.72 2194.11 1445.55 2197.48 1445.55 2201.23 1445.55 2210.04 1446.37 2216.51 1448.01 2220.63 1449.64 2224.75 1452.17 2226.81 1455.6 2226.81 1458.87 2226.81 1461.3 2224.87 1462.88 2220.99 1464.46 2217.11 1465.25 2211.11 1465.25 2202.98 1465.25 2196.76 1464.85 2191.73 1464.03 2187.88 1463.22 2184.03 1462.1 2181.27 1460.65 2179.59 1459.21 2177.92 1457.46 2177.08 1455.4 2177.08ZM1455.6 2173.63C1461.52 2173.63 1465.93 2175.92 1468.82 2180.48 1471.71 2185.05 1473.15 2191.95 1473.15 2201.19 1473.15 2210.76 1471.61 2217.99 1468.51 2222.9 1465.42 2227.8 1460.9 2230.25 1454.96 2230.25 1449.12 2230.25 1444.78 2227.95 1441.93 2223.36 1439.08 2218.77 1437.65 2211.8 1437.65 2202.45 1437.65 2197.48 1438.09 2193.18 1438.97 2189.56 1439.85 2185.94 1441.08 2182.95 1442.66 2180.58 1444.24 2178.22 1446.14 2176.47 1448.35 2175.34 1450.57 2174.2 1452.98 2173.63 1455.6 2173.63ZM1412.6 2173.63 1414.83 2173.63C1414.67 2176.23 1414.59 2179.82 1414.59 2184.41L1414.59 2219.03C1414.59 2220.59 1414.68 2221.77 1414.85 2222.57 1415.03 2223.37 1415.34 2224.02 1415.79 2224.52 1416.23 2225.02 1416.87 2225.41 1417.71 2225.69 1418.55 2225.98 1419.6 2226.19 1420.87 2226.34 1422.14 2226.49 1423.82 2226.59 1425.9 2226.64L1425.9 2229.6 1395.95 2229.6 1395.95 2226.64C1398.95 2226.51 1401.09 2226.33 1402.37 2226.1 1403.65 2225.87 1404.63 2225.52 1405.31 2225.06 1405.98 2224.6 1406.48 2223.96 1406.79 2223.12 1407.1 2222.28 1407.25 2220.92 1407.25 2219.03L1407.25 2186.16C1407.25 2185.08 1407.07 2184.29 1406.69 2183.79 1406.31 2183.29 1405.75 2183.04 1405.03 2183.04 1404.16 2183.04 1402.93 2183.48 1401.34 2184.37 1399.74 2185.27 1397.77 2186.5 1395.42 2188.06L1393.64 2184.94Z" fill-rule="evenodd"/><text fill="#000000" fill-opacity="0" font-family="Arial,Arial_MSFontService,sans-serif" font-size="56.6167" x="1393.64" y="2223.17">10</text><path d="M1491.55 2176.02C1489.86 2176.02 1488.49 2176.57 1487.44 2177.67 1486.39 2178.77 1485.86 2180.2 1485.86 2181.94 1485.86 2183.71 1486.4 2185.15 1487.46 2186.26 1488.52 2187.38 1489.88 2187.93 1491.55 2187.93 1492.65 2187.93 1493.63 2187.68 1494.5 2187.19 1495.38 2186.69 1496.06 2185.98 1496.54 2185.06 1497.03 2184.13 1497.27 2183.1 1497.27 2181.94 1497.27 2180.79 1497.03 2179.77 1496.54 2178.86 1496.06 2177.96 1495.38 2177.26 1494.52 2176.76 1493.65 2176.27 1492.66 2176.02 1491.55 2176.02ZM1491.73 2172.44C1493.54 2172.44 1495.16 2172.85 1496.59 2173.65 1498.02 2174.45 1499.12 2175.59 1499.91 2177.04 1500.69 2178.5 1501.08 2180.14 1501.08 2181.94 1501.08 2183.75 1500.67 2185.39 1499.85 2186.86 1499.02 2188.33 1497.87 2189.47 1496.39 2190.28 1494.91 2191.1 1493.25 2191.51 1491.4 2191.51 1489.54 2191.51 1487.89 2191.08 1486.46 2190.24 1485.03 2189.4 1483.94 2188.25 1483.18 2186.8 1482.43 2185.35 1482.05 2183.72 1482.05 2181.91 1482.05 2180.21 1482.45 2178.63 1483.26 2177.18 1484.06 2175.73 1485.21 2174.58 1486.7 2173.72 1488.19 2172.87 1489.86 2172.44 1491.73 2172.44Z" fill-rule="evenodd"/><text fill="#000000" fill-opacity="0" font-family="Arial,Arial_MSFontService,sans-serif" font-size="19.0625" x="1482.05" y="2189.12">âˆ˜</text><path d="M1513.17 2174.28 1525.86 2174.28 1545.88 2207.68C1546.85 2209.3 1547.67 2210.72 1548.33 2211.93 1548.99 2213.15 1549.67 2214.51 1550.38 2216.03L1550.9 2216.03C1550.77 2214.38 1550.65 2211.1 1550.54 2206.2 1550.43 2201.29 1550.38 2196.87 1550.38 2192.93L1550.38 2184.41C1550.38 2182.55 1550.32 2181.19 1550.22 2180.32 1550.11 2179.46 1549.91 2178.79 1549.63 2178.34 1549.34 2177.88 1548.95 2177.5 1548.45 2177.22 1547.95 2176.94 1547.08 2176.62 1545.84 2176.27L1545.84 2174.28 1560.43 2174.28 1560.43 2176.27C1559.21 2176.59 1558.35 2176.89 1557.85 2177.16 1557.35 2177.43 1556.95 2177.78 1556.64 2178.21 1556.33 2178.65 1556.09 2179.29 1555.93 2180.16 1555.77 2181.02 1555.69 2182.44 1555.69 2184.41L1555.69 2229.85 1550.62 2229.85 1528.05 2191.99C1526.64 2189.64 1525.64 2187.93 1525.05 2186.85 1524.45 2185.77 1523.9 2184.7 1523.39 2183.64L1522.7 2183.64C1522.89 2185.73 1523.02 2189.49 1523.1 2194.93 1523.18 2200.38 1523.22 2205.8 1523.22 2211.2L1523.22 2219.47C1523.22 2221.28 1523.28 2222.6 1523.41 2223.44 1523.53 2224.28 1523.73 2224.94 1524.01 2225.43 1524.3 2225.91 1524.72 2226.32 1525.27 2226.64 1525.82 2226.97 1526.72 2227.29 1527.97 2227.62L1527.97 2229.6 1513.17 2229.6 1513.17 2227.62C1514.85 2227.18 1515.97 2226.71 1516.54 2226.18 1517.1 2225.65 1517.48 2224.9 1517.65 2223.93 1517.83 2222.96 1517.91 2221.47 1517.91 2219.47L1517.91 2184.41C1517.91 2182.55 1517.85 2181.19 1517.71 2180.34 1517.58 2179.49 1517.35 2178.83 1517.04 2178.36 1516.73 2177.88 1516.32 2177.5 1515.81 2177.22 1515.29 2176.94 1514.42 2176.62 1513.17 2176.27Z" fill-rule="evenodd"/><text fill="#000000" fill-opacity="0" font-family="Arial,Arial_MSFontService,sans-serif" font-size="55.563" x="1513.17" y="2222.9">N</text><path d="M2471.7 2177.08C2469.83 2177.08 2468.27 2177.63 2467.01 2178.74 2465.76 2179.85 2464.74 2181.44 2463.97 2183.52 2463.2 2185.6 2462.66 2188.14 2462.33 2191.12 2462.01 2194.11 2461.85 2197.48 2461.85 2201.23 2461.85 2210.04 2462.66 2216.51 2464.3 2220.63 2465.93 2224.75 2468.47 2226.81 2471.9 2226.81 2475.17 2226.81 2477.59 2224.87 2479.17 2220.99 2480.75 2217.11 2481.54 2211.11 2481.54 2202.98 2481.54 2196.76 2481.14 2191.73 2480.33 2187.88 2479.52 2184.03 2478.39 2181.27 2476.94 2179.59 2475.5 2177.92 2473.75 2177.08 2471.7 2177.08ZM2409.52 2174.28 2444.3 2174.28 2444.3 2176.23 2420.71 2229.89 2414.83 2229.89 2414.83 2227.9 2436.68 2181.66 2436.68 2181.05 2418.85 2181.05C2417.74 2181.05 2416.85 2181.15 2416.19 2181.35 2415.53 2181.56 2414.98 2181.85 2414.53 2182.23 2414.08 2182.6 2413.71 2183.1 2413.42 2183.73 2413.12 2184.35 2412.71 2185.58 2412.2 2187.41L2408.71 2187.41ZM2471.9 2173.63C2477.81 2173.63 2482.22 2175.92 2485.11 2180.48 2488 2185.05 2489.45 2191.95 2489.45 2201.19 2489.45 2210.76 2487.9 2217.99 2484.81 2222.9 2481.71 2227.8 2477.19 2230.25 2471.25 2230.25 2465.41 2230.25 2461.07 2227.95 2458.22 2223.36 2455.37 2218.77 2453.94 2211.8 2453.94 2202.45 2453.94 2197.48 2454.38 2193.18 2455.26 2189.56 2456.14 2185.94 2457.37 2182.95 2458.95 2180.58 2460.53 2178.22 2462.43 2176.47 2464.64 2175.34 2466.86 2174.2 2469.28 2173.63 2471.9 2173.63Z" fill-rule="evenodd"/><text fill="#000000" fill-opacity="0" font-family="Arial,Arial_MSFontService,sans-serif" font-size="56.6167" x="2408.71" y="2223.17">70</text><path d="M2507.85 2176.02C2506.16 2176.02 2504.79 2176.57 2503.74 2177.67 2502.68 2178.77 2502.16 2180.2 2502.16 2181.94 2502.16 2183.71 2502.69 2185.15 2503.75 2186.26 2504.81 2187.38 2506.18 2187.93 2507.85 2187.93 2508.94 2187.93 2509.92 2187.68 2510.79 2187.19 2511.67 2186.69 2512.35 2185.98 2512.83 2185.06 2513.32 2184.13 2513.56 2183.1 2513.56 2181.94 2513.56 2180.79 2513.32 2179.77 2512.83 2178.86 2512.35 2177.96 2511.67 2177.26 2510.81 2176.76 2509.95 2176.27 2508.96 2176.02 2507.85 2176.02ZM2508.02 2172.44C2509.83 2172.44 2511.45 2172.85 2512.88 2173.65 2514.31 2174.45 2515.42 2175.59 2516.2 2177.04 2516.98 2178.5 2517.38 2180.14 2517.38 2181.94 2517.38 2183.75 2516.96 2185.39 2516.14 2186.86 2515.32 2188.33 2514.16 2189.47 2512.69 2190.28 2511.21 2191.1 2509.54 2191.51 2507.7 2191.51 2505.83 2191.51 2504.18 2191.08 2502.75 2190.24 2501.32 2189.4 2500.23 2188.25 2499.48 2186.8 2498.72 2185.35 2498.34 2183.72 2498.34 2181.91 2498.34 2180.21 2498.75 2178.63 2499.55 2177.18 2500.35 2175.73 2501.5 2174.58 2502.99 2173.72 2504.48 2172.87 2506.16 2172.44 2508.02 2172.44Z" fill-rule="evenodd"/><text fill="#000000" fill-opacity="0" font-family="Arial,Arial_MSFontService,sans-serif" font-size="19.0625" x="2498.34" y="2189.12">âˆ˜</text><path d="M2529.47 2174.28 2542.15 2174.28 2562.17 2207.68C2563.14 2209.3 2563.96 2210.72 2564.62 2211.93 2565.29 2213.15 2565.97 2214.51 2566.67 2216.03L2567.2 2216.03C2567.06 2214.38 2566.94 2211.1 2566.83 2206.2 2566.72 2201.29 2566.67 2196.87 2566.67 2192.93L2566.67 2184.41C2566.67 2182.55 2566.62 2181.19 2566.51 2180.32 2566.4 2179.46 2566.2 2178.79 2565.92 2178.34 2565.64 2177.88 2565.24 2177.5 2564.75 2177.22 2564.25 2176.94 2563.37 2176.62 2562.13 2176.27L2562.13 2174.28 2576.72 2174.28 2576.72 2176.27C2575.51 2176.59 2574.65 2176.89 2574.15 2177.16 2573.65 2177.43 2573.24 2177.78 2572.93 2178.21 2572.62 2178.65 2572.38 2179.29 2572.22 2180.16 2572.06 2181.02 2571.98 2182.44 2571.98 2184.41L2571.98 2229.85 2566.91 2229.85 2544.34 2191.99C2542.93 2189.64 2541.94 2187.93 2541.34 2186.85 2540.75 2185.77 2540.19 2184.7 2539.68 2183.64L2538.99 2183.64C2539.18 2185.73 2539.31 2189.49 2539.4 2194.93 2539.48 2200.38 2539.52 2205.8 2539.52 2211.2L2539.52 2219.47C2539.52 2221.28 2539.58 2222.6 2539.7 2223.44 2539.82 2224.28 2540.02 2224.94 2540.31 2225.43 2540.59 2225.91 2541.01 2226.32 2541.56 2226.64 2542.12 2226.97 2543.02 2227.29 2544.26 2227.62L2544.26 2229.6 2529.47 2229.6 2529.47 2227.62C2531.14 2227.18 2532.26 2226.71 2532.83 2226.18 2533.4 2225.65 2533.77 2224.9 2533.94 2223.93 2534.12 2222.96 2534.21 2221.47 2534.21 2219.47L2534.21 2184.41C2534.21 2182.55 2534.14 2181.19 2534.01 2180.34 2533.87 2179.49 2533.65 2178.83 2533.34 2178.36 2533.03 2177.88 2532.61 2177.5 2532.1 2177.22 2531.59 2176.94 2530.71 2176.62 2529.47 2176.27Z" fill-rule="evenodd"/><text fill="#000000" fill-opacity="0" font-family="Arial,Arial_MSFontService,sans-serif" font-size="55.563" x="2529.47" y="2222.9">N</text><path d="M3258 852.5C3258 788.159 3311.5 736 3377.5 736 3443.5 736 3497 788.159 3497 852.5 3497 916.841 3443.5 969 3377.5 969 3311.5 969 3258 916.841 3258 852.5Z" stroke="#FF0000" stroke-width="10.3125" stroke-linecap="square" stroke-miterlimit="8" stroke-dasharray="30.9375 10.3125" fill="none" fill-rule="evenodd"/><path d="M3268.39 1019.23C3267.39 1019.23 3266.41 1019.54 3265.44 1020.18 3264.47 1020.81 3263.39 1021.87 3262.2 1023.34 3261.02 1024.8 3260.05 1026.31 3259.3 1027.85 3258.55 1029.39 3257.91 1031.36 3257.39 1033.76L3257.11 1035.07C3256.8 1036.53 3256.64 1037.94 3256.64 1039.32 3256.64 1040.97 3257 1042.15 3257.72 1042.88 3258.44 1043.61 3259.63 1043.98 3261.3 1043.98 3262.15 1043.98 3262.96 1043.84 3263.73 1043.55 3264.51 1043.27 3265.29 1042.81 3266.09 1042.16 3266.9 1041.52 3267.66 1040.67 3268.38 1039.62 3269.09 1038.56 3269.76 1037.27 3270.36 1035.73 3270.96 1034.18 3271.43 1032.53 3271.77 1030.77 3272.1 1029.01 3272.27 1027.33 3272.27 1025.73 3272.27 1023.56 3271.96 1021.93 3271.34 1020.85 3270.73 1019.77 3269.74 1019.23 3268.39 1019.23ZM3262.92 1001.26 3264.73 1001.26 3259.23 1023.13 3259.64 1023.26C3261.66 1020.55 3263.56 1018.59 3265.33 1017.38 3267.1 1016.17 3268.87 1015.57 3270.64 1015.57 3272.91 1015.57 3274.68 1016.43 3275.94 1018.16 3277.2 1019.89 3277.83 1022.33 3277.83 1025.48 3277.83 1028.91 3277.14 1032.29 3275.75 1035.62 3274.36 1038.94 3272.44 1041.57 3269.98 1043.52 3267.53 1045.47 3264.78 1046.44 3261.73 1046.44 3258.96 1046.44 3256.51 1045.77 3254.36 1044.41L3251.48 1046.44 3249.48 1045.94 3257.58 1010.23C3258.06 1008.1 3258.3 1006.56 3258.3 1005.6 3258.3 1004.73 3258.03 1004.11 3257.5 1003.76 3256.97 1003.4 3256.02 1003.21 3254.64 1003.16L3255.02 1001.54Z" fill="#FF0000" fill-rule="evenodd"/><text fill="#000000" fill-opacity="0" font-family="Arial,Arial_MSFontService,sans-serif" font-size="45.1875" x="3249.48" y="1040.8">ğ‘</text><path d="M3295.28 1037.87C3294.44 1037.87 3293.61 1038.08 3292.79 1038.49 3291.98 1038.9 3291.2 1039.49 3290.48 1040.25 3289.75 1041 3289.09 1041.92 3288.49 1043 3287.9 1044.08 3287.4 1045.28 3287 1046.61 3288.94 1046.6 3290.61 1046.45 3292.01 1046.16 3293.41 1045.86 3294.56 1045.47 3295.46 1044.96 3296.35 1044.46 3297.01 1043.86 3297.43 1043.17 3297.85 1042.48 3298.06 1041.73 3298.06 1040.9 3298.06 1039.95 3297.82 1039.21 3297.35 1038.67 3296.88 1038.14 3296.19 1037.87 3295.28 1037.87ZM3296.27 1035.6C3298.23 1035.6 3299.72 1036.03 3300.74 1036.88 3301.75 1037.74 3302.26 1038.96 3302.26 1040.53 3302.26 1046.07 3297.02 1048.84 3286.54 1048.84 3286.46 1049.24 3286.4 1049.67 3286.36 1050.14 3286.31 1050.6 3286.29 1051.11 3286.29 1051.66 3286.29 1053.33 3286.63 1054.55 3287.31 1055.31 3287.99 1056.08 3289.05 1056.46 3290.49 1056.46 3291.24 1056.46 3291.95 1056.38 3292.62 1056.22 3293.3 1056.06 3293.96 1055.81 3294.61 1055.47 3295.26 1055.14 3295.91 1054.7 3296.57 1054.18 3297.23 1053.65 3297.92 1053.02 3298.64 1052.28L3300.36 1054.14C3298.58 1055.9 3296.81 1057.22 3295.04 1058.11 3293.28 1059 3291.38 1059.44 3289.34 1059.44 3288.15 1059.44 3287.09 1059.26 3286.16 1058.9 3285.24 1058.54 3284.46 1058.02 3283.82 1057.33 3283.19 1056.64 3282.7 1055.81 3282.38 1054.82 3282.05 1053.83 3281.88 1052.72 3281.88 1051.48 3281.88 1050.61 3281.96 1049.7 3282.11 1048.76 3282.26 1047.82 3282.5 1046.88 3282.82 1045.94 3283.14 1045 3283.54 1044.08 3284.02 1043.18 3284.49 1042.29 3285.05 1041.45 3285.69 1040.67 3286.98 1039.08 3288.53 1037.84 3290.34 1036.94 3292.15 1036.05 3294.13 1035.6 3296.27 1035.6Z" fill="#FF0000" fill-rule="evenodd"/><text fill="#000000" fill-opacity="0" font-family="Arial,Arial_MSFontService,sans-serif" font-size="23.8442" x="3281.88" y="1056.46">ğ‘’</text><path d="M3292.87 1000.36 3295.9 1000.36 3295.23 1007.54 3301.13 1003.38 3302.62 1005.95 3296.08 1009.01 3302.62 1012.08 3301.13 1014.63 3295.23 1010.48 3295.9 1017.66 3292.87 1017.66 3293.56 1010.48 3287.64 1014.63 3286.12 1012.08 3292.69 1009.01 3286.12 1005.95 3287.64 1003.38 3293.56 1007.54Z" fill="#FF0000" fill-rule="evenodd"/><text fill="#000000" fill-opacity="0" font-family="Arial,Arial_MSFontService,sans-serif" font-size="17.3037" x="3286.12" y="1015.5">âˆ—</text><path d="M3327.14 1025.57 3365.64 1025.57 3365.64 1029.73 3327.14 1029.73Z" fill="#FF0000" fill-rule="evenodd"/><text fill="#000000" fill-opacity="0" font-family="Arial,Arial_MSFontService,sans-serif" font-size="4.15625" x="3327.14" y="1029.21">âˆ’</text><path d="M3406.65 1019.23C3405.65 1019.23 3404.66 1019.54 3403.69 1020.18 3402.73 1020.81 3401.65 1021.87 3400.46 1023.34 3399.27 1024.8 3398.3 1026.31 3397.55 1027.85 3396.8 1029.39 3396.17 1031.36 3395.65 1033.76L3395.37 1035.07C3395.05 1036.53 3394.9 1037.94 3394.9 1039.32 3394.9 1040.97 3395.26 1042.15 3395.98 1042.88 3396.69 1043.61 3397.89 1043.98 3399.55 1043.98 3400.41 1043.98 3401.22 1043.84 3401.99 1043.55 3402.76 1043.27 3403.55 1042.81 3404.35 1042.16 3405.15 1041.52 3405.91 1040.67 3406.63 1039.62 3407.35 1038.56 3408.01 1037.27 3408.62 1035.73 3409.22 1034.18 3409.69 1032.53 3410.02 1030.77 3410.36 1029.01 3410.52 1027.33 3410.52 1025.73 3410.52 1023.56 3410.21 1021.93 3409.6 1020.85 3408.99 1019.77 3408 1019.23 3406.65 1019.23ZM3401.18 1001.26 3402.99 1001.26 3397.49 1023.13 3397.9 1023.26C3399.92 1020.55 3401.81 1018.59 3403.58 1017.38 3405.36 1016.17 3407.13 1015.57 3408.9 1015.57 3411.17 1015.57 3412.93 1016.43 3414.19 1018.16 3415.45 1019.89 3416.08 1022.33 3416.08 1025.48 3416.08 1028.91 3415.39 1032.29 3414.01 1035.62 3412.62 1038.94 3410.7 1041.57 3408.24 1043.52 3405.78 1045.47 3403.03 1046.44 3399.99 1046.44 3397.22 1046.44 3394.76 1045.77 3392.62 1044.41L3389.74 1046.44 3387.74 1045.94 3395.83 1010.23C3396.31 1008.1 3396.55 1006.56 3396.55 1005.6 3396.55 1004.73 3396.29 1004.11 3395.76 1003.76 3395.23 1003.4 3394.27 1003.21 3392.9 1003.16L3393.27 1001.54Z" fill="#FF0000" fill-rule="evenodd"/><text fill="#000000" fill-opacity="0" font-family="Arial,Arial_MSFontService,sans-serif" font-size="45.1875" x="3387.74" y="1040.8">ğ‘</text><path d="M3418.92 1036.08 3425.55 1036.08 3427.34 1054.72C3428.32 1053.2 3429.19 1051.83 3429.94 1050.61 3430.69 1049.38 3431.35 1048.26 3431.91 1047.23 3432.48 1046.21 3432.97 1045.26 3433.38 1044.39 3433.79 1043.52 3434.14 1042.68 3434.42 1041.89 3434.71 1041.09 3434.94 1040.31 3435.14 1039.55 3435.33 1038.78 3435.49 1037.99 3435.63 1037.18L3435.9 1036.08 3439.58 1036.08 3441.57 1054.72C3444.1 1051.27 3446.01 1048.26 3447.3 1045.69 3448.59 1043.11 3449.24 1041.05 3449.24 1039.5 3449.24 1038.83 3449.08 1038.35 3448.76 1038.08 3448.44 1037.8 3447.85 1037.63 3447.01 1037.55L3447.29 1036.08 3453.76 1036.08 3454.56 1037.41C3453.92 1039.08 3453.21 1040.72 3452.44 1042.35 3451.67 1043.97 3450.76 1045.65 3449.72 1047.41 3448.68 1049.16 3447.46 1051.01 3446.07 1052.97 3444.68 1054.93 3443.04 1057.07 3441.16 1059.4L3438.22 1059.4 3436.36 1043.47C3435.35 1045.8 3434.08 1048.27 3432.54 1050.91 3431.01 1053.54 3429.2 1056.37 3427.12 1059.4L3423.76 1059.4 3421.61 1042.07C3421.49 1041.15 3421.38 1040.41 3421.29 1039.86 3421.19 1039.3 3421.05 1038.86 3420.86 1038.55 3420.67 1038.23 3420.4 1038.01 3420.05 1037.87 3419.7 1037.73 3419.21 1037.63 3418.58 1037.55Z" fill="#FF0000" fill-rule="evenodd"/><text fill="#000000" fill-opacity="0" font-family="Arial,Arial_MSFontService,sans-serif" font-size="23.3164" x="3418.58" y="1056.48">ğ‘¤</text><path d="M3431.13 1000.36 3434.15 1000.36 3433.49 1007.54 3439.39 1003.38 3440.88 1005.95 3434.34 1009.01 3440.88 1012.08 3439.39 1014.63 3433.49 1010.48 3434.15 1017.66 3431.13 1017.66 3431.81 1010.48 3425.89 1014.63 3424.38 1012.08 3430.94 1009.01 3424.38 1005.95 3425.89 1003.38 3431.81 1007.54Z" fill="#FF0000" fill-rule="evenodd"/><text fill="#000000" fill-opacity="0" font-family="Arial,Arial_MSFontService,sans-serif" font-size="17.3037" x="3424.38" y="1015.5">âˆ—</text><path d="M3481.92 1008.26 3520.55 1025.48 3520.55 1029.85 3481.92 1047.07 3481.92 1042.38 3515.86 1027.66 3481.92 1012.94Z" fill="#FF0000" fill-rule="evenodd"/><text fill="#000000" fill-opacity="0" font-family="Arial,Arial_MSFontService,sans-serif" font-size="38.8125" x="3481.92" y="1042.22">&gt;</text><path d="M3560.94 1005.44C3559.5 1005.44 3558.3 1005.87 3557.33 1006.73 3556.36 1007.58 3555.58 1008.81 3554.99 1010.41 3554.39 1012.02 3553.97 1013.97 3553.72 1016.27 3553.47 1018.57 3553.34 1021.17 3553.34 1024.07 3553.34 1030.86 3553.97 1035.85 3555.24 1039.02 3556.5 1042.2 3558.45 1043.79 3561.09 1043.79 3563.62 1043.79 3565.49 1042.29 3566.7 1039.3 3567.92 1036.31 3568.53 1031.68 3568.53 1025.41 3568.53 1020.62 3568.22 1016.74 3567.59 1013.77 3566.97 1010.8 3566.1 1008.67 3564.99 1007.38 3563.87 1006.09 3562.52 1005.44 3560.94 1005.44ZM3561.09 1002.79C3565.66 1002.79 3569.05 1004.55 3571.28 1008.07 3573.51 1011.59 3574.63 1016.91 3574.63 1024.04 3574.63 1031.41 3573.43 1036.99 3571.05 1040.77 3568.66 1044.55 3565.18 1046.44 3560.59 1046.44 3556.09 1046.44 3552.75 1044.67 3550.55 1041.13 3548.35 1037.59 3547.25 1032.22 3547.25 1025.01 3547.25 1021.17 3547.59 1017.86 3548.27 1015.07 3548.94 1012.28 3549.89 1009.97 3551.11 1008.15 3552.33 1006.32 3553.79 1004.98 3555.5 1004.1 3557.21 1003.23 3559.07 1002.79 3561.09 1002.79Z" fill="#FF0000" fill-rule="evenodd"/><text fill="#000000" fill-opacity="0" font-family="Arial,Arial_MSFontService,sans-serif" font-size="43.6562" x="3547.25" y="1040.99">0</text><path d="M3261 1796C3261 1731.38 3314.5 1679 3380.5 1679 3446.5 1679 3500 1731.38 3500 1796 3500 1860.62 3446.5 1913 3380.5 1913 3314.5 1913 3261 1860.62 3261 1796Z" stroke="#FF0000" stroke-width="10.3125" stroke-linecap="square" stroke-miterlimit="8" stroke-dasharray="30.9375 10.3125" fill="none" fill-rule="evenodd"/><path d="M1928 1757 1949 1757 1949 1660 1991 1660 1991 1757 2012 1757 1970 1799Z" fill-rule="evenodd"/><path d="M1937 1515C1937 1496.22 1952.22 1481 1971 1481 1989.78 1481 2005 1496.22 2005 1515 2005 1533.78 1989.78 1549 1971 1549 1952.22 1549 1937 1533.78 1937 1515Z" stroke="#000000" stroke-width="10.3125" stroke-miterlimit="8" fill="#FFFFFF" fill-rule="evenodd"/><path d="M1959 1515C1959 1508.37 1964.37 1503 1971 1503 1977.63 1503 1983 1508.37 1983 1515 1983 1521.63 1977.63 1527 1971 1527 1964.37 1527 1959 1521.63 1959 1515Z" stroke="#000000" stroke-width="10.3125" stroke-miterlimit="8" fill-rule="evenodd"/><path d="M1934 1936.5C1934 1914.68 1951.46 1897 1973 1897 1994.54 1897 2012 1914.68 2012 1936.5 2012 1958.32 1994.54 1976 1973 1976 1951.46 1976 1934 1958.32 1934 1936.5Z" stroke="#000000" stroke-width="10.3125" stroke-miterlimit="8" fill="#FFFFFF" fill-rule="evenodd"/><path d="M1946.92 1914.92 1949.23 1912.68 1972.5 1936.69 1995.77 1912.68 1998.08 1914.92 1974.74 1939 1998.08 1963.08 1995.77 1965.32 1972.5 1941.31 1949.23 1965.32 1946.92 1963.08 1970.26 1939Z" stroke="#000000" stroke-width="4.58333" stroke-miterlimit="8" fill-rule="evenodd"/><text font-family="Abadi,Abadi_MSFontService,sans-serif" font-weight="400" font-size="83" transform="matrix(1 0 0 1 1705.43 357)">(a) Begin state</text><text font-family="Abadi,Abadi_MSFontService,sans-serif" font-weight="400" font-size="83" transform="matrix(1 0 0 1 3138.36 357)">(b) Steady state</text><path d="M3177.34 1099.71 3163.9 1099.73 3163.94 1099.73 3151.06 1099.8 3138.67 1099.79 3126.73 1099.55 3115.21 1098.96 3104.09 1097.85 3093.36 1096.07 3083.01 1093.44 3073.07 1089.78 3063.61 1084.93 3054.72 1078.74 3046.62 1071.26 3042.66 1066.78 3039.01 1062.07 3035.54 1056.98 3032.26 1051.51 3029.16 1045.65 3026.23 1039.38 3023.47 1032.7 3020.91 1025.67 3018.34 1018.16 3015.51 1009.84 3012.46 1000.7 3009.21 990.808 3005.82 980.212 3002.33 968.973 2998.77 957.148 2995.19 944.797 2991.63 931.975 2988.13 918.701 2981.52 891.248 2975.67 862.789 2970.95 833.87 2969.11 819.258 2967.68 804.735 2966.7 790.298 2966.23 775.999 2966.3 761.89 2966.96 748.025 2968.27 734.453 2970.27 721.228 2973.03 708.403 2976.6 696.033 2981.04 684.18 2986.42 672.911 2992.79 662.304 3000.22 652.449 3008.74 643.442 3018.24 635.5 3023.6 631.734 3029.2 628.174 3035.15 624.716 3041.53 621.316 3055.08 614.887 3069.99 608.746 3086.11 602.918 3103.33 597.394 3121.58 592.174 3140.76 587.257 3160.78 582.647 3181.53 578.347 3202.92 574.363 3224.85 570.701 3247.22 567.366 3269.98 564.359 3315.99 559.39 3362.18 555.836 3385.15 554.605 3407.82 553.753 3430.13 553.283 3451.98 553.205 3473.28 553.526 3493.93 554.254 3513.83 555.398 3532.88 556.968 3550.99 558.974 3568.07 561.43 3584.03 564.351 3598.8 567.758 3612.2 571.656 3618.53 573.854 3624.5 576.199 3635.35 581.215 3645.54 586.894 3655.01 593.186 3663.77 600.068 3671.83 607.51 3679.2 615.482 3685.89 623.952 3691.93 632.885 3697.35 642.25 3702.16 652.019 3706.39 662.163 3710.09 672.658 3713.27 683.483 3715.97 694.617 3718.22 706.043 3720.05 717.742 3721.48 729.698 3722.55 741.962 3723.69 766.932 3723.68 792.752 3722.71 819.207 3720.99 846.188 3718.25 877.191 3697.71 875.377 3700.43 844.498 3700.41 844.748 3702.12 818.033 3702.1 818.314 3703.06 792.185 3703.05 792.555 3703.06 767.158 3703.08 767.632 3701.96 743.113 3701.99 743.543 3700.95 731.659 3700.98 731.989 3699.59 720.379 3699.64 720.743 3697.88 709.427 3697.95 709.828 3695.78 698.823 3695.88 699.262 3693.29 688.586 3693.41 689.064 3690.38 678.736 3690.54 679.251 3687.04 669.289 3687.25 669.84 3683.25 660.263 3683.51 660.843 3678.99 651.669 3679.32 652.273 3674.26 643.519 3674.64 644.136 3669.02 635.822 3669.47 636.44 3663.27 628.584 3663.78 629.188 3656.96 621.808 3657.54 622.384 3650.08 615.498 3650.71 616.032 3642.6 609.659 3643.26 610.139 3634.47 604.296 3635.15 604.715 3625.65 599.421 3626.35 599.775 3616.12 595.049 3616.67 595.285 3611.18 593.126 3611.56 593.269 3605.68 591.225 3606.18 591.386 3593.32 587.643 3593.88 587.79 3579.62 584.501 3580.09 584.596 3564.55 581.754 3564.94 581.817 3548.22 579.413 3548.55 579.456 3530.75 577.484 3531.04 577.511 3512.26 575.964 3512.51 575.982 3492.86 574.851 3493.09 574.862 3472.66 574.142 3472.87 574.147 3451.77 573.829 3451.96 573.83 3430.29 573.908 3430.47 573.905 3408.34 574.371 3408.51 574.366 3386 575.213 3386.17 575.205 3363.4 576.425 3363.64 576.41 3317.73 579.942 3318.05 579.913 3272.31 584.852 3272.56 584.823 3250.01 587.802 3250.18 587.778 3227.98 591.087 3228.16 591.059 3206.41 594.691 3206.6 594.657 3185.41 598.604 3185.61 598.564 3165.07 602.82 3165.3 602.771 3145.52 607.327 3145.76 607.267 3126.84 612.117 3127.12 612.043 3109.16 617.179 3109.48 617.085 3092.58 622.5 3092.94 622.378 3077.22 628.065 3077.64 627.903 3063.18 633.855 3063.68 633.636 3050.59 639.845 3051.02 639.628 3045.03 642.826 3045.35 642.646 3039.73 645.906 3040.09 645.69 3034.87 649.011 3035.26 648.749 3030.44 652.13 3031.13 651.602 3022.43 658.878 3023.31 658.053 3015.6 666.202 3016.34 665.321 3009.59 674.284 3010.19 673.391 3004.35 683.111 3004.82 682.24 2999.85 692.659 3000.2 691.836 2996.05 702.896 2996.31 702.136 2992.95 713.778 2993.12 713.088 2990.5 725.255 2990.62 724.633 2988.7 737.268 2988.77 736.712 2987.51 749.756 2987.55 749.26 2986.91 762.656 2986.92 762.214 2986.85 775.903 2986.85 775.509 2987.31 789.435 2987.29 789.083 2988.25 803.187 2988.22 802.872 2989.62 817.095 2989.59 816.813 2991.39 831.099 2991.34 830.731 2996 859.259 2995.92 858.845 3001.69 886.928 3001.61 886.589 3008.16 913.765 3008.1 913.548 3011.56 926.651 3011.52 926.525 3015.05 939.227 3015.01 939.113 3018.56 951.357 3018.53 951.255 3022.06 962.982 3022.03 962.891 3025.5 974.044 3025.48 973.964 3028.85 984.485 3028.82 984.416 3032.05 994.248 3032.03 994.191 3035.07 1003.28 3035.05 1003.23 3037.85 1011.49 3040.39 1018.9 3040.32 1018.71 3042.77 1025.43 3042.62 1025.03 3045.2 1031.3 3045.01 1030.87 3047.73 1036.69 3047.5 1036.23 3050.36 1041.62 3050.09 1041.14 3053.07 1046.11 3052.75 1045.61 3055.87 1050.19 3055.5 1049.68 3058.76 1053.88 3058.33 1053.37 3061.72 1057.21 3061 1056.46 3068.19 1063.11 3067.08 1062.22 3074.82 1067.6 3073.64 1066.89 3081.93 1071.15 3080.79 1070.65 3089.63 1073.9 3088.61 1073.59 3098.02 1075.98 3097.16 1075.8 3107.13 1077.45 3106.47 1077.36 3117 1078.41 3116.51 1078.37 3127.62 1078.95 3127.29 1078.94 3138.98 1079.16 3138.79 1079.16 3151.05 1079.18 3150.99 1079.18 3163.85 1079.11 3177.3 1079.09ZM3739.77 869.034 3702.96 927.602 3678.19 863.008Z" fill="#4472C4"/><path d="M2844.15 2177.08C2842.29 2177.08 2840.73 2177.63 2839.47 2178.74 2838.21 2179.85 2837.2 2181.44 2836.43 2183.52 2835.66 2185.6 2835.11 2188.14 2834.79 2191.12 2834.47 2194.11 2834.3 2197.48 2834.3 2201.23 2834.3 2210.04 2835.12 2216.51 2836.76 2220.63 2838.39 2224.75 2840.92 2226.81 2844.35 2226.81 2847.62 2226.81 2850.05 2224.87 2851.63 2220.99 2853.21 2217.11 2854 2211.11 2854 2202.98 2854 2196.76 2853.59 2191.73 2852.78 2187.88 2851.97 2184.03 2850.85 2181.27 2849.4 2179.59 2847.95 2177.92 2846.21 2177.08 2844.15 2177.08ZM2844.35 2173.63C2850.27 2173.63 2854.68 2175.92 2857.57 2180.48 2860.46 2185.05 2861.9 2191.95 2861.9 2201.19 2861.9 2210.76 2860.36 2217.99 2857.26 2222.9 2854.17 2227.8 2849.65 2230.25 2843.71 2230.25 2837.87 2230.25 2833.53 2227.95 2830.68 2223.36 2827.83 2218.77 2826.4 2211.8 2826.4 2202.45 2826.4 2197.48 2826.84 2193.18 2827.72 2189.56 2828.6 2185.94 2829.83 2182.95 2831.41 2180.58 2832.99 2178.22 2834.88 2176.47 2837.1 2175.34 2839.32 2174.2 2841.73 2173.63 2844.35 2173.63ZM2801.35 2173.63 2803.58 2173.63C2803.42 2176.23 2803.34 2179.82 2803.34 2184.41L2803.34 2219.03C2803.34 2220.59 2803.43 2221.77 2803.6 2222.57 2803.78 2223.37 2804.09 2224.02 2804.54 2224.52 2804.98 2225.02 2805.62 2225.41 2806.46 2225.69 2807.3 2225.98 2808.35 2226.19 2809.62 2226.34 2810.89 2226.49 2812.57 2226.59 2814.65 2226.64L2814.65 2229.6 2784.7 2229.6 2784.7 2226.64C2787.7 2226.51 2789.84 2226.33 2791.12 2226.1 2792.4 2225.87 2793.38 2225.52 2794.06 2225.06 2794.73 2224.6 2795.23 2223.96 2795.54 2223.12 2795.85 2222.28 2796 2220.92 2796 2219.03L2796 2186.16C2796 2185.08 2795.81 2184.29 2795.44 2183.79 2795.06 2183.29 2794.5 2183.04 2793.78 2183.04 2792.91 2183.04 2791.68 2183.48 2790.09 2184.37 2788.49 2185.27 2786.52 2186.5 2784.17 2188.06L2782.39 2184.94Z" fill-rule="evenodd"/><text fill="#000000" fill-opacity="0" font-family="Arial,Arial_MSFontService,sans-serif" font-size="56.6167" x="2782.39" y="2223.17">10</text><path d="M2880.3 2176.02C2878.61 2176.02 2877.24 2176.57 2876.19 2177.67 2875.14 2178.77 2874.61 2180.2 2874.61 2181.94 2874.61 2183.71 2875.15 2185.15 2876.21 2186.26 2877.27 2187.38 2878.63 2187.93 2880.3 2187.93 2881.39 2187.93 2882.38 2187.68 2883.25 2187.19 2884.13 2186.69 2884.81 2185.98 2885.29 2185.06 2885.78 2184.13 2886.02 2183.1 2886.02 2181.94 2886.02 2180.79 2885.78 2179.77 2885.29 2178.86 2884.81 2177.96 2884.13 2177.26 2883.27 2176.76 2882.4 2176.27 2881.41 2176.02 2880.3 2176.02ZM2880.48 2172.44C2882.29 2172.44 2883.91 2172.85 2885.34 2173.65 2886.77 2174.45 2887.87 2175.59 2888.66 2177.04 2889.44 2178.5 2889.83 2180.14 2889.83 2181.94 2889.83 2183.75 2889.42 2185.39 2888.6 2186.86 2887.77 2188.33 2886.62 2189.47 2885.14 2190.28 2883.66 2191.1 2882 2191.51 2880.15 2191.51 2878.29 2191.51 2876.64 2191.08 2875.21 2190.24 2873.78 2189.4 2872.69 2188.25 2871.93 2186.8 2871.18 2185.35 2870.8 2183.72 2870.8 2181.91 2870.8 2180.21 2871.2 2178.63 2872.01 2177.18 2872.81 2175.73 2873.96 2174.58 2875.45 2173.72 2876.94 2172.87 2878.61 2172.44 2880.48 2172.44Z" fill-rule="evenodd"/><text fill="#000000" fill-opacity="0" font-family="Arial,Arial_MSFontService,sans-serif" font-size="19.0625" x="2870.8" y="2189.12">âˆ˜</text><path d="M2901.92 2174.28 2914.61 2174.28 2934.63 2207.68C2935.6 2209.3 2936.42 2210.72 2937.08 2211.93 2937.74 2213.15 2938.42 2214.51 2939.13 2216.03L2939.65 2216.03C2939.52 2214.38 2939.4 2211.1 2939.29 2206.2 2939.18 2201.29 2939.13 2196.87 2939.13 2192.93L2939.13 2184.41C2939.13 2182.55 2939.07 2181.19 2938.97 2180.32 2938.86 2179.46 2938.66 2178.79 2938.38 2178.34 2938.09 2177.88 2937.7 2177.5 2937.2 2177.22 2936.7 2176.94 2935.83 2176.62 2934.59 2176.27L2934.59 2174.28 2949.18 2174.28 2949.18 2176.27C2947.96 2176.59 2947.1 2176.89 2946.6 2177.16 2946.1 2177.43 2945.7 2177.78 2945.39 2178.21 2945.08 2178.65 2944.84 2179.29 2944.68 2180.16 2944.52 2181.02 2944.44 2182.44 2944.44 2184.41L2944.44 2229.85 2939.37 2229.85 2916.8 2191.99C2915.39 2189.64 2914.39 2187.93 2913.8 2186.85 2913.2 2185.77 2912.65 2184.7 2912.14 2183.64L2911.45 2183.64C2911.64 2185.73 2911.77 2189.49 2911.85 2194.93 2911.93 2200.38 2911.97 2205.8 2911.97 2211.2L2911.97 2219.47C2911.97 2221.28 2912.03 2222.6 2912.16 2223.44 2912.28 2224.28 2912.48 2224.94 2912.76 2225.43 2913.05 2225.91 2913.47 2226.32 2914.02 2226.64 2914.57 2226.97 2915.47 2227.29 2916.72 2227.62L2916.72 2229.6 2901.92 2229.6 2901.92 2227.62C2903.6 2227.18 2904.72 2226.71 2905.29 2226.18 2905.85 2225.65 2906.23 2224.9 2906.4 2223.93 2906.58 2222.96 2906.66 2221.47 2906.66 2219.47L2906.66 2184.41C2906.66 2182.55 2906.6 2181.19 2906.46 2180.34 2906.33 2179.49 2906.1 2178.83 2905.79 2178.36 2905.48 2177.88 2905.07 2177.5 2904.56 2177.22 2904.04 2176.94 2903.17 2176.62 2901.92 2176.27Z" fill-rule="evenodd"/><text fill="#000000" fill-opacity="0" font-family="Arial,Arial_MSFontService,sans-serif" font-size="55.563" x="2901.92" y="2222.9">N</text><path d="M3860.44 2177.08C3858.58 2177.08 3857.02 2177.63 3855.76 2178.74 3854.51 2179.85 3853.49 2181.44 3852.72 2183.52 3851.95 2185.6 3851.41 2188.14 3851.08 2191.12 3850.76 2194.11 3850.6 2197.48 3850.6 2201.23 3850.6 2210.04 3851.41 2216.51 3853.05 2220.63 3854.68 2224.75 3857.22 2226.81 3860.65 2226.81 3863.92 2226.81 3866.34 2224.87 3867.92 2220.99 3869.5 2217.11 3870.29 2211.11 3870.29 2202.98 3870.29 2196.76 3869.89 2191.73 3869.08 2187.88 3868.27 2184.03 3867.14 2181.27 3865.69 2179.59 3864.25 2177.92 3862.5 2177.08 3860.44 2177.08ZM3798.27 2174.28 3833.05 2174.28 3833.05 2176.23 3809.46 2229.89 3803.58 2229.89 3803.58 2227.9 3825.43 2181.66 3825.43 2181.05 3807.6 2181.05C3806.49 2181.05 3805.6 2181.15 3804.94 2181.35 3804.28 2181.56 3803.73 2181.85 3803.28 2182.23 3802.83 2182.6 3802.46 2183.1 3802.17 2183.73 3801.87 2184.35 3801.46 2185.58 3800.95 2187.41L3797.46 2187.41ZM3860.65 2173.63C3866.56 2173.63 3870.97 2175.92 3873.86 2180.48 3876.75 2185.05 3878.2 2191.95 3878.2 2201.19 3878.2 2210.76 3876.65 2217.99 3873.56 2222.9 3870.46 2227.8 3865.94 2230.25 3860 2230.25 3854.16 2230.25 3849.82 2227.95 3846.97 2223.36 3844.12 2218.77 3842.69 2211.8 3842.69 2202.45 3842.69 2197.48 3843.13 2193.18 3844.01 2189.56 3844.89 2185.94 3846.12 2182.95 3847.7 2180.58 3849.28 2178.22 3851.18 2176.47 3853.39 2175.34 3855.61 2174.2 3858.03 2173.63 3860.65 2173.63Z" fill-rule="evenodd"/><text fill="#000000" fill-opacity="0" font-family="Arial,Arial_MSFontService,sans-serif" font-size="56.6167" x="3797.46" y="2223.17">70</text><path d="M3896.6 2176.02C3894.91 2176.02 3893.54 2176.57 3892.49 2177.67 3891.43 2178.77 3890.91 2180.2 3890.91 2181.94 3890.91 2183.71 3891.44 2185.15 3892.5 2186.26 3893.56 2187.38 3894.93 2187.93 3896.6 2187.93 3897.69 2187.93 3898.67 2187.68 3899.54 2187.19 3900.42 2186.69 3901.1 2185.98 3901.58 2185.06 3902.07 2184.13 3902.31 2183.1 3902.31 2181.94 3902.31 2180.79 3902.07 2179.77 3901.58 2178.86 3901.1 2177.96 3900.42 2177.26 3899.56 2176.76 3898.7 2176.27 3897.71 2176.02 3896.6 2176.02ZM3896.77 2172.44C3898.58 2172.44 3900.2 2172.85 3901.63 2173.65 3903.06 2174.45 3904.17 2175.59 3904.95 2177.04 3905.73 2178.5 3906.13 2180.14 3906.13 2181.94 3906.13 2183.75 3905.71 2185.39 3904.89 2186.86 3904.07 2188.33 3902.91 2189.47 3901.44 2190.28 3899.96 2191.1 3898.29 2191.51 3896.45 2191.51 3894.58 2191.51 3892.93 2191.08 3891.5 2190.24 3890.07 2189.4 3888.98 2188.25 3888.23 2186.8 3887.47 2185.35 3887.09 2183.72 3887.09 2181.91 3887.09 2180.21 3887.5 2178.63 3888.3 2177.18 3889.1 2175.73 3890.25 2174.58 3891.74 2173.72 3893.23 2172.87 3894.91 2172.44 3896.77 2172.44Z" fill-rule="evenodd"/><text fill="#000000" fill-opacity="0" font-family="Arial,Arial_MSFontService,sans-serif" font-size="19.0625" x="3887.09" y="2189.12">âˆ˜</text><path d="M3918.22 2174.28 3930.9 2174.28 3950.92 2207.68C3951.89 2209.3 3952.71 2210.72 3953.37 2211.93 3954.04 2213.15 3954.72 2214.51 3955.42 2216.03L3955.95 2216.03C3955.81 2214.38 3955.69 2211.1 3955.58 2206.2 3955.47 2201.29 3955.42 2196.87 3955.42 2192.93L3955.42 2184.41C3955.42 2182.55 3955.37 2181.19 3955.26 2180.32 3955.15 2179.46 3954.95 2178.79 3954.67 2178.34 3954.39 2177.88 3953.99 2177.5 3953.5 2177.22 3953 2176.94 3952.12 2176.62 3950.88 2176.27L3950.88 2174.28 3965.47 2174.28 3965.47 2176.27C3964.26 2176.59 3963.4 2176.89 3962.9 2177.16 3962.4 2177.43 3961.99 2177.78 3961.68 2178.21 3961.37 2178.65 3961.13 2179.29 3960.97 2180.16 3960.81 2181.02 3960.73 2182.44 3960.73 2184.41L3960.73 2229.85 3955.66 2229.85 3933.09 2191.99C3931.68 2189.64 3930.69 2187.93 3930.09 2186.85 3929.5 2185.77 3928.94 2184.7 3928.43 2183.64L3927.74 2183.64C3927.93 2185.73 3928.06 2189.49 3928.15 2194.93 3928.23 2200.38 3928.27 2205.8 3928.27 2211.2L3928.27 2219.47C3928.27 2221.28 3928.33 2222.6 3928.45 2223.44 3928.57 2224.28 3928.77 2224.94 3929.06 2225.43 3929.34 2225.91 3929.76 2226.32 3930.31 2226.64 3930.87 2226.97 3931.77 2227.29 3933.01 2227.62L3933.01 2229.6 3918.22 2229.6 3918.22 2227.62C3919.89 2227.18 3921.01 2226.71 3921.58 2226.18 3922.15 2225.65 3922.52 2224.9 3922.69 2223.93 3922.87 2222.96 3922.96 2221.47 3922.96 2219.47L3922.96 2184.41C3922.96 2182.55 3922.89 2181.19 3922.76 2180.34 3922.62 2179.49 3922.4 2178.83 3922.09 2178.36 3921.78 2177.88 3921.36 2177.5 3920.85 2177.22 3920.34 2176.94 3919.46 2176.62 3918.22 2176.27Z" fill-rule="evenodd"/><text fill="#000000" fill-opacity="0" font-family="Arial,Arial_MSFontService,sans-serif" font-size="55.563" x="3918.22" y="2222.9">N</text><path d="M1730 1495C1730 1451.92 1764.92 1417 1808 1417L2120 1417C2163.08 1417 2198 1451.92 2198 1495L2198 1933C2198 1976.08 2163.08 2011 2120 2011L1808 2011C1764.92 2011 1730 1976.08 1730 1933Z" stroke="#FF0000" stroke-width="10.3125" stroke-linecap="square" stroke-miterlimit="8" stroke-dasharray="30.9375 10.3125" fill="none" fill-rule="evenodd"/><path d="M2268.01 1620.01C2266.07 1620.01 2264.27 1620.78 2262.62 1622.31 2260.96 1623.84 2259.61 1626.14 2258.57 1629.2 2257.53 1632.26 2257.01 1635.29 2257.01 1638.29 2257.01 1640.17 2257.21 1641.63 2257.62 1642.68 2258.02 1643.73 2258.56 1644.46 2259.22 1644.85 2259.89 1645.25 2260.72 1645.45 2261.72 1645.45 2263.97 1645.45 2265.9 1644.55 2267.49 1642.74 2269.08 1640.94 2270.44 1638.23 2271.57 1634.62 2272.69 1631 2273.26 1628.16 2273.26 1626.07 2273.26 1623.95 2272.82 1622.41 2271.96 1621.45 2271.09 1620.49 2269.78 1620.01 2268.01 1620.01ZM2269.63 1602.51C2273.11 1602.51 2275.71 1603.69 2277.44 1606.06 2279.17 1608.42 2280.04 1612 2280.04 1616.79 2280.04 1618.69 2279.87 1620.94 2279.54 1623.56 2279.2 1626.17 2278.64 1628.9 2277.85 1631.73 2277.06 1634.56 2276.14 1636.97 2275.1 1638.95 2274.06 1640.93 2272.9 1642.56 2271.63 1643.85 2270.36 1645.15 2268.9 1646.15 2267.24 1646.85 2265.58 1647.56 2263.71 1647.92 2261.63 1647.92 2258.51 1647.92 2256.03 1646.98 2254.21 1645.1 2252.39 1643.23 2251.47 1640.48 2251.47 1636.85 2251.47 1633.58 2252.16 1630.44 2253.54 1627.42 2254.91 1624.4 2256.8 1621.99 2259.19 1620.21 2261.59 1618.43 2264.21 1617.54 2267.07 1617.54 2268.57 1617.54 2269.88 1617.71 2271.01 1618.06 2272.13 1618.4 2273.38 1619.07 2274.76 1620.07L2274.82 1619.29C2274.88 1618.29 2274.91 1617.43 2274.91 1616.7 2274.91 1612.76 2274.39 1609.9 2273.35 1608.12 2272.31 1606.34 2270.68 1605.45 2268.47 1605.45 2266.95 1605.45 2265.54 1605.81 2264.24 1606.53 2262.94 1607.24 2261.66 1608.35 2260.41 1609.85L2258.16 1609.85 2258.16 1607.26C2260.14 1605.86 2261.68 1604.87 2262.77 1604.28 2263.87 1603.68 2264.96 1603.24 2266.05 1602.95 2267.15 1602.66 2268.34 1602.51 2269.63 1602.51Z" fill="#FF0000" fill-rule="evenodd"/><text fill="#000000" fill-opacity="0" font-family="Arial,Arial_MSFontService,sans-serif" font-size="45.4062" x="2251.47" y="1642.24">ğœ•</text><path d="M2306.97 1620.7C2305.97 1620.7 2304.98 1621.02 2304.01 1621.65 2303.04 1622.29 2301.97 1623.34 2300.78 1624.81 2299.59 1626.28 2298.62 1627.78 2297.87 1629.32 2297.12 1630.86 2296.49 1632.83 2295.97 1635.23L2295.68 1636.54C2295.37 1638 2295.22 1639.42 2295.22 1640.79 2295.22 1642.44 2295.58 1643.62 2296.29 1644.35 2297.01 1645.08 2298.21 1645.45 2299.87 1645.45 2300.73 1645.45 2301.54 1645.31 2302.31 1645.03 2303.08 1644.74 2303.87 1644.28 2304.67 1643.64 2305.47 1642.99 2306.23 1642.14 2306.95 1641.09 2307.67 1640.04 2308.33 1638.74 2308.93 1637.2 2309.54 1635.66 2310.01 1634 2310.34 1632.24 2310.67 1630.48 2310.84 1628.8 2310.84 1627.2 2310.84 1625.03 2310.53 1623.41 2309.92 1622.32 2309.3 1621.24 2308.32 1620.7 2306.97 1620.7ZM2301.5 1602.73 2303.31 1602.73 2297.81 1624.6 2298.22 1624.73C2300.24 1622.02 2302.13 1620.06 2303.9 1618.85 2305.67 1617.65 2307.45 1617.04 2309.22 1617.04 2311.49 1617.04 2313.25 1617.91 2314.51 1619.64 2315.77 1621.36 2316.4 1623.8 2316.4 1626.95 2316.4 1630.39 2315.71 1633.77 2314.33 1637.09 2312.94 1640.41 2311.02 1643.05 2308.56 1644.99 2306.1 1646.94 2303.35 1647.92 2300.31 1647.92 2297.54 1647.92 2295.08 1647.24 2292.93 1645.89L2290.06 1647.92 2288.06 1647.42 2296.15 1611.7C2296.63 1609.57 2296.87 1608.03 2296.87 1607.07 2296.87 1606.2 2296.61 1605.58 2296.08 1605.23 2295.54 1604.87 2294.59 1604.68 2293.22 1604.64L2293.59 1603.01Z" fill="#FF0000" fill-rule="evenodd"/><text fill="#000000" fill-opacity="0" font-family="Arial,Arial_MSFontService,sans-serif" font-size="45.1875" x="2288.06" y="1642.27">ğ‘</text><path d="M2333.86 1639.34C2333.02 1639.34 2332.19 1639.55 2331.37 1639.96 2330.55 1640.38 2329.78 1640.96 2329.05 1641.72 2328.33 1642.48 2327.66 1643.39 2327.07 1644.47 2326.47 1645.55 2325.97 1646.76 2325.58 1648.09 2327.52 1648.07 2329.19 1647.92 2330.59 1647.63 2331.99 1647.34 2333.14 1646.94 2334.03 1646.43 2334.93 1645.93 2335.59 1645.33 2336.01 1644.64 2336.43 1643.96 2336.64 1643.2 2336.64 1642.37 2336.64 1641.42 2336.4 1640.68 2335.93 1640.15 2335.45 1639.61 2334.76 1639.34 2333.86 1639.34ZM2334.85 1637.07C2336.81 1637.07 2338.29 1637.5 2339.31 1638.36 2340.33 1639.21 2340.84 1640.43 2340.84 1642 2340.84 1647.54 2335.6 1650.31 2325.12 1650.31 2325.04 1650.71 2324.98 1651.14 2324.93 1651.61 2324.89 1652.08 2324.86 1652.58 2324.86 1653.14 2324.86 1654.8 2325.2 1656.02 2325.89 1656.78 2326.57 1657.55 2327.63 1657.93 2329.06 1657.93 2329.81 1657.93 2330.52 1657.85 2331.2 1657.69 2331.87 1657.53 2332.53 1657.28 2333.18 1656.94 2333.83 1656.61 2334.49 1656.18 2335.15 1655.65 2335.8 1655.12 2336.49 1654.49 2337.21 1653.75L2338.93 1655.61C2337.16 1657.37 2335.39 1658.7 2333.62 1659.58 2331.85 1660.47 2329.95 1660.91 2327.92 1660.91 2326.72 1660.91 2325.66 1660.73 2324.74 1660.38 2323.81 1660.02 2323.03 1659.49 2322.4 1658.8 2321.76 1658.11 2321.28 1657.28 2320.95 1656.29 2320.62 1655.3 2320.46 1654.19 2320.46 1652.95 2320.46 1652.08 2320.53 1651.17 2320.69 1650.23 2320.84 1649.29 2321.08 1648.35 2321.4 1647.41 2321.72 1646.47 2322.12 1645.55 2322.59 1644.66 2323.07 1643.76 2323.62 1642.92 2324.27 1642.14 2325.55 1640.55 2327.1 1639.31 2328.91 1638.41 2330.73 1637.52 2332.71 1637.07 2334.85 1637.07Z" fill="#FF0000" fill-rule="evenodd"/><text fill="#000000" fill-opacity="0" font-family="Arial,Arial_MSFontService,sans-serif" font-size="23.8442" x="2320.46" y="1657.93">ğ‘’</text><path d="M2331.44 1601.83 2334.47 1601.83 2333.81 1609.01 2339.71 1604.86 2341.2 1607.43 2334.66 1610.48 2341.2 1613.55 2339.71 1616.1 2333.81 1611.95 2334.47 1619.13 2331.44 1619.13 2332.13 1611.95 2326.21 1616.1 2324.7 1613.55 2331.26 1610.48 2324.7 1607.43 2326.21 1604.86 2332.13 1609.01Z" fill="#FF0000" fill-rule="evenodd"/><text fill="#000000" fill-opacity="0" font-family="Arial,Arial_MSFontService,sans-serif" font-size="17.3037" x="2324.7" y="1616.97">âˆ—</text><path d="M2281.02 1711.49C2279.08 1711.49 2277.29 1712.26 2275.63 1713.79 2273.98 1715.32 2272.63 1717.62 2271.58 1720.68 2270.54 1723.74 2270.02 1726.77 2270.02 1729.77 2270.02 1731.65 2270.23 1733.11 2270.63 1734.17 2271.04 1735.22 2271.57 1735.94 2272.24 1736.34 2272.91 1736.73 2273.74 1736.93 2274.74 1736.93 2276.99 1736.93 2278.91 1736.03 2280.51 1734.23 2282.1 1732.43 2283.46 1729.72 2284.58 1726.1 2285.71 1722.49 2286.27 1719.64 2286.27 1717.56 2286.27 1715.43 2285.84 1713.89 2284.98 1712.93 2284.11 1711.97 2282.79 1711.49 2281.02 1711.49ZM2307.37 1708.52C2308.22 1708.52 2308.95 1708.64 2309.55 1708.87 2309.97 1709.04 2310.39 1709.31 2310.8 1709.7 2311.22 1710.08 2311.59 1710.62 2311.91 1711.31 2312.24 1711.99 2312.52 1712.76 2312.76 1713.62 2313 1714.47 2313.26 1715.7 2313.55 1717.31 2314.05 1719.99 2314.54 1722.82 2315.01 1725.79 2315.48 1728.76 2315.88 1731.51 2316.21 1734.06 2318.23 1731.14 2319.94 1728.29 2321.35 1725.49 2322.76 1722.7 2323.77 1720.27 2324.38 1718.21 2325 1716.15 2325.3 1714.47 2325.3 1713.18 2325.3 1712.2 2325.1 1711.54 2324.68 1711.18 2324.26 1710.83 2323.55 1710.62 2322.55 1710.56L2322.87 1709.02 2331.08 1709.02 2331.93 1710.59C2330.35 1714.92 2328.2 1719.56 2325.49 1724.49 2322.82 1729.33 2319.77 1734.14 2316.33 1738.93 2313.04 1743.49 2310.3 1746.8 2308.12 1748.84 2306.6 1750.23 2305.13 1751.23 2303.71 1751.84 2302.58 1752.3 2301.39 1752.52 2300.12 1752.52 2299.68 1752.52 2299.17 1752.49 2298.6 1752.42 2298.03 1752.34 2297.58 1752.24 2297.27 1752.12L2298.62 1746.06 2301.08 1746.06C2301.08 1747.39 2301.54 1748.06 2302.46 1748.06 2303.67 1748.06 2305.07 1747.3 2306.68 1745.79 2308.28 1744.28 2310.17 1742 2312.33 1738.96 2311.73 1735.32 2310.91 1730.92 2309.87 1725.77 2308.76 1720.27 2308.03 1716.87 2307.68 1715.56 2307.24 1713.97 2306.78 1712.96 2306.3 1712.52 2306.01 1712.25 2305.65 1712.12 2305.21 1712.12 2304.54 1712.12 2303.92 1712.39 2303.33 1712.93 2302.75 1713.47 2302.03 1714.41 2301.18 1715.74L2299.15 1714.4C2300.58 1712.25 2301.93 1710.74 2303.18 1709.85 2304.43 1708.97 2305.82 1708.52 2307.37 1708.52ZM2282.65 1693.99C2286.13 1693.99 2288.73 1695.18 2290.46 1697.54 2292.19 1699.9 2293.05 1703.48 2293.05 1708.27 2293.05 1710.17 2292.89 1712.43 2292.55 1715.04 2292.22 1717.65 2291.66 1720.38 2290.87 1723.21 2290.07 1726.05 2289.16 1728.45 2288.12 1730.43 2287.07 1732.41 2285.92 1734.05 2284.65 1735.34 2283.38 1736.63 2281.91 1737.63 2280.26 1738.34 2278.6 1739.05 2276.73 1739.4 2274.65 1739.4 2271.52 1739.4 2269.05 1738.46 2267.23 1736.59 2265.4 1734.71 2264.49 1731.96 2264.49 1728.34 2264.49 1725.07 2265.18 1721.92 2266.55 1718.9 2267.93 1715.88 2269.81 1713.48 2272.21 1711.7 2274.61 1709.92 2277.23 1709.02 2280.08 1709.02 2281.58 1709.02 2282.9 1709.2 2284.02 1709.54 2285.15 1709.88 2286.4 1710.56 2287.77 1711.56L2287.83 1710.77C2287.9 1709.77 2287.93 1708.91 2287.93 1708.18 2287.93 1704.24 2287.41 1701.38 2286.37 1699.6 2285.32 1697.82 2283.7 1696.93 2281.49 1696.93 2279.97 1696.93 2278.56 1697.29 2277.26 1698.01 2275.95 1698.73 2274.68 1699.84 2273.43 1701.34L2271.18 1701.34 2271.18 1698.74C2273.16 1697.35 2274.69 1696.35 2275.79 1695.76 2276.88 1695.17 2277.98 1694.72 2279.07 1694.43 2280.16 1694.14 2281.36 1693.99 2282.65 1693.99Z" fill="#FF0000" fill-rule="evenodd"/><text fill="#000000" fill-opacity="0" font-family="Arial,Arial_MSFontService,sans-serif" font-size="58.5312" x="2264.49" y="1745.21">ğœ•ğ‘¦</text><path d="M2248.33 1675.97 2297.83 1675.97 2347.33 1675.97 2347.33 1679.97 2297.83 1679.97 2248.33 1679.97Z" fill="#FF0000" fill-rule="evenodd"/><path d="M2407.92 1658.29 2407.92 1662.98 2373.98 1677.7 2407.92 1692.41 2407.92 1697.1 2369.29 1679.88 2369.29 1675.51Z" fill="#FF0000" fill-rule="evenodd"/><text fill="#000000" fill-opacity="0" font-family="Arial,Arial_MSFontService,sans-serif" font-size="38.8125" x="2369.29" y="1692.25">&lt;</text><path d="M2448.31 1655.48C2446.87 1655.48 2445.67 1655.9 2444.7 1656.76 2443.73 1657.61 2442.95 1658.84 2442.36 1660.45 2441.76 1662.05 2441.34 1664 2441.09 1666.3 2440.84 1668.61 2440.72 1671.21 2440.72 1674.1 2440.72 1680.89 2441.35 1685.88 2442.61 1689.05 2443.87 1692.23 2445.82 1693.82 2448.47 1693.82 2450.99 1693.82 2452.86 1692.33 2454.08 1689.34 2455.29 1686.35 2455.9 1681.72 2455.9 1675.45 2455.9 1670.65 2455.59 1666.77 2454.97 1663.8 2454.34 1660.84 2453.47 1658.71 2452.36 1657.41 2451.24 1656.12 2449.89 1655.48 2448.31 1655.48ZM2448.47 1652.82C2453.03 1652.82 2456.42 1654.58 2458.65 1658.1 2460.88 1661.62 2462 1666.95 2462 1674.07 2462 1681.45 2460.8 1687.02 2458.42 1690.8 2456.03 1694.59 2452.55 1696.48 2447.97 1696.48 2443.47 1696.48 2440.12 1694.71 2437.92 1691.16 2435.72 1687.62 2434.62 1682.25 2434.62 1675.04 2434.62 1671.21 2434.96 1667.89 2435.64 1665.1 2436.31 1662.31 2437.26 1660 2438.48 1658.18 2439.7 1656.36 2441.16 1655.01 2442.87 1654.13 2444.58 1653.26 2446.45 1652.82 2448.47 1652.82Z" fill="#FF0000" fill-rule="evenodd"/><text fill="#000000" fill-opacity="0" font-family="Arial,Arial_MSFontService,sans-serif" font-size="43.6562" x="2434.62" y="1691.02">0</text><path d="M3652.81 543.437 3650.85 547.082 3648.3 551.612 3645.39 556.722 3645.41 556.688 3642.34 562.167 3642.39 562.088 3639.38 567.696 3639.45 567.559 3636.71 573.044 3636.82 572.816 3634.58 577.93 3634.73 577.526 3633.2 582.019 3633.36 581.451 3632.5 585.391 3632.58 584.859 3632.18 588.512 3632.21 587.967 3632.19 591.382 3632.17 590.869 3632.48 594.096 3632.38 593.489 3633.71 599.572 3633.59 599.146 3635.42 605.061 3635.29 604.692 3636.48 607.701 3636.26 607.22 3637.83 610.247 3637.59 609.836 3641.37 615.724 3641.23 615.513 3645.03 620.841 3646.71 623.286 3647.98 625.383 3647.91 625.273 3649.48 627.73 3649.3 627.467 3651.2 630.064 3651.14 629.996 3655.49 635.758 3659.71 642.342 3661.52 646.229 3662.76 650.298 3664.01 658.42 3664.25 667.17 3663.88 671.805 3663.13 676.35 3661.93 680.822 3660.15 685.284 3657.35 689.587 3653.68 693.437 3649.66 696.878 3645.59 700.067 3645.6 700.055 3641.7 703.139 3641.91 702.96 3638.41 706.049 3638.86 705.6 3636.08 708.735 3636.77 707.748 3635.04 710.97 3635.65 708.765 3635.49 712.396 3635.41 711.253 3636.03 714.706 3635.79 713.824 3637.02 717.116 3636.76 716.527 3638.4 719.676 3638.17 719.273 3641.99 725.212 3643.91 728.192 3645.54 731.17 3648.18 736.365 3648.08 736.175 3650.69 740.815 3650.67 740.779 3655.66 749.499 3655.6 749.383 3658.21 753.682 3658.12 753.541 3660.95 757.876 3663.46 762.501 3664.48 765.299 3665.06 768.274 3665.03 773.482 3663.9 778.622 3661.76 783.6 3658.64 788.595 3656.07 791.372 3652.98 793.838 3649.76 796.073 3646.55 798.233 3646.69 798.137 3643.66 800.323 3644.01 800.042 3641.41 802.295 3642.03 801.651 3640.13 803.993 3640.95 802.573 3640.01 805.025 3640.33 802.706 3640.54 805.02 3639.87 802.917 3641.06 804.963 3640.34 803.999 3642.22 805.982 3641.97 805.74 3644.36 807.943 3647.12 810.725 3649.94 814.38 3652.36 819.071 3653.87 824.679 3654.32 828.021 3654.62 831.565 3654.96 839.437 3655.03 848.21 3654.91 857.377 3654.69 866.448 3654.44 874.929 3654.35 877.941 3644.04 877.644 3644.13 874.624 3644.38 866.157 3644.38 866.182 3644.6 857.154 3644.6 857.215 3644.72 848.132 3644.72 848.238 3644.65 839.609 3644.65 839.789 3644.32 832.119 3644.34 832.342 3644.05 829.026 3644.08 829.257 3643.7 826.37 3643.83 827.042 3642.54 822.291 3642.94 823.303 3640.99 819.516 3641.49 820.31 3639.16 817.282 3639.58 817.764 3637.12 815.289 3637.28 815.446 3634.85 813.202 3632.44 810.654 3630.38 807.107 3629.95 802.473 3631.61 798.122 3634.32 794.787 3637.44 792.092 3640.72 789.725 3643.97 787.539 3643.91 787.579 3646.96 785.463 3646.68 785.669 3649.33 783.555 3648.77 784.084 3650.74 781.949 3650.15 782.716 3652.81 778.469 3652.44 779.171 3654.23 775.006 3653.93 775.93 3654.84 771.797 3654.72 772.872 3654.75 768.723 3654.84 769.743 3654.44 767.669 3654.65 768.443 3653.9 766.386 3654.22 767.086 3651.99 762.982 3652.2 763.34 3649.44 759.111 3646.75 754.683 3641.71 745.887 3639.04 741.137 3636.38 735.917 3636.46 736.057 3634.95 733.306 3635.13 733.615 3633.32 730.795 3629.37 724.66 3627.47 721.017 3625.97 716.991 3625.16 712.518 3625.4 707.139 3627.96 702.35 3631.35 698.523 3635.2 695.131 3639.22 691.955 3643.21 688.829 3643.04 688.971 3646.77 685.774 3646.39 686.133 3649.55 682.818 3648.96 683.564 3651.22 680.089 3650.76 680.991 3652.23 677.283 3652.04 677.854 3653.1 673.92 3652.99 674.417 3653.67 670.338 3653.62 670.769 3653.95 666.626 3653.93 667.175 3653.71 659.023 3653.77 659.665 3652.63 652.232 3652.79 652.961 3651.76 649.592 3652.02 650.255 3650.5 647.005 3650.84 647.612 3646.92 641.486 3647.14 641.812 3642.89 636.174 3640.87 633.414 3639.19 630.769 3637.97 628.748 3638.13 629.004 3636.56 626.722 3636.61 626.796 3632.76 621.401 3628.79 615.205 3626.98 611.732 3625.63 608.294 3623.68 601.981 3622.24 595.381 3621.88 591.592 3621.9 587.646 3622.36 583.453 3623.34 578.961 3625.05 573.984 3627.43 568.556 3630.25 562.888 3633.32 557.173 3636.42 551.638 3639.33 546.52 3639.32 546.536 3641.84 542.062 3641.79 542.16 3643.72 538.563ZM3672.22 849.87 3649.01 888.024 3627.22 849.045C3625.83 846.559 3626.72 843.418 3629.21 842.028 3631.69 840.639 3634.83 841.527 3636.22 844.013L3653.7 875.276 3644.79 875.113 3663.4 844.511C3664.88 842.078 3668.06 841.306 3670.49 842.785 3672.92 844.265 3673.69 847.437 3672.22 849.87Z" fill="#7030A0"/><path d="M3563.42 548.493 3561.41 552.139 3558.77 556.67 3555.78 561.779 3555.8 561.745 3552.64 567.225 3552.68 567.145 3549.58 572.752 3549.66 572.614 3546.84 578.099 3546.95 577.868 3544.64 582.982 3544.8 582.571 3543.22 587.064 3543.39 586.483 3542.5 590.422 3542.59 589.876 3542.18 593.529 3542.21 592.968 3542.19 596.383 3542.17 595.854 3542.49 599.081 3542.39 598.457 3543.75 604.541 3543.63 604.104 3545.52 610.019 3545.38 609.643 3546.6 612.652 3546.37 612.164 3547.99 615.191 3547.74 614.777 3551.64 620.665 3551.49 620.453 3555.41 625.781 3557.14 628.227 3558.45 630.324 3558.38 630.214 3559.99 632.67 3559.81 632.407 3561.76 635.005 3561.71 634.937 3566.19 640.699 3570.53 647.285 3572.4 651.181 3573.69 655.265 3574.97 663.406 3575.22 672.174 3574.84 676.823 3574.06 681.381 3572.82 685.866 3570.98 690.34 3568.1 694.645 3564.32 698.489 3560.19 701.925 3556 705.112 3556.01 705.101 3551.99 708.185 3552.2 708.01 3548.59 711.099 3549.05 710.657 3546.19 713.792 3546.89 712.805 3545.12 716.027 3545.75 713.772 3545.59 717.403 3545.51 716.226 3546.15 719.679 3545.89 718.776 3547.16 722.069 3546.88 721.471 3548.58 724.62 3548.34 724.214 3552.28 730.153 3554.25 733.134 3555.93 736.114 3558.66 741.309 3558.55 741.118 3561.24 745.757 3561.22 745.722 3566.36 754.441 3566.29 754.325 3568.99 758.624 3568.89 758.482 3571.81 762.817 3574.4 767.448 3575.46 770.26 3576.06 773.26 3576.02 778.499 3574.85 783.665 3572.65 788.656 3569.43 793.653 3566.79 796.423 3563.62 798.881 3560.3 801.113 3557 803.272 3557.13 803.18 3554.01 805.365 3554.37 805.091 3551.69 807.344 3552.32 806.709 3550.35 809.051 3551.2 807.621 3550.24 810.074 3550.57 807.692 3550.8 810.005 3550.09 807.859 3551.31 809.905 3550.57 808.944 3552.51 810.927 3552.26 810.689 3554.72 812.89 3557.56 815.668 3560.47 819.322 3562.96 824.023 3564.53 829.65 3564.99 833.005 3565.3 836.555 3565.65 844.433 3565.72 853.211 3565.6 862.38 3565.37 871.453 3565.11 879.933 3565.02 882.945 3554.72 882.64 3554.81 879.62 3555.06 871.152 3555.06 871.179 3555.29 862.15 3555.29 862.213 3555.41 853.13 3555.41 853.24 3555.34 844.61 3555.34 844.796 3555 837.126 3555.02 837.356 3554.72 834.039 3554.75 834.277 3554.36 831.391 3554.5 832.08 3553.18 827.329 3553.59 828.359 3551.58 824.573 3552.1 825.368 3549.69 822.341 3550.12 822.818 3547.59 820.343 3547.76 820.497 3545.25 818.256 3542.77 815.713 3540.64 812.149 3540.19 807.453 3541.91 803.065 3544.71 799.733 3547.91 797.047 3551.29 794.685 3554.63 792.5 3554.57 792.539 3557.72 790.422 3557.44 790.623 3560.17 788.508 3559.59 789.028 3561.63 786.894 3561.02 787.658 3563.76 783.411 3563.38 784.12 3565.22 779.954 3564.91 780.898 3565.84 776.765 3565.72 777.871 3565.74 773.722 3565.84 774.772 3565.43 772.697 3565.65 773.49 3564.88 771.433 3565.21 772.143 3562.92 768.039 3563.14 768.399 3560.29 764.17 3557.52 759.741 3552.33 750.945 3549.57 746.193 3546.84 740.973 3546.91 741.114 3545.36 738.363 3545.55 738.674 3543.68 735.854 3539.61 729.718 3537.65 726.069 3536.1 722.029 3535.26 717.529 3535.51 712.102 3538.16 707.291 3541.65 703.47 3545.6 700.083 3549.75 696.909 3553.86 693.783 3553.68 693.922 3557.53 690.725 3557.15 691.078 3560.4 687.762 3559.8 688.505 3562.13 685.03 3561.64 685.941 3563.16 682.233 3562.96 682.816 3564.05 678.882 3563.94 679.392 3564.63 675.313 3564.58 675.757 3564.92 671.614 3564.9 672.179 3564.68 664.027 3564.74 664.688 3563.56 657.255 3563.74 658.003 3562.67 654.633 3562.94 655.309 3561.38 652.059 3561.73 652.671 3557.69 646.545 3557.92 646.871 3553.54 641.233 3551.46 638.473 3549.72 635.827 3548.47 633.806 3548.64 634.064 3547.02 631.781 3547.07 631.855 3543.1 626.46 3539.01 620.263 3537.15 616.785 3535.75 613.34 3533.74 607.018 3532.25 600.404 3531.88 596.599 3531.9 592.637 3532.38 588.428 3533.39 583.922 3535.15 578.935 3537.61 573.502 3540.52 567.832 3543.68 562.116 3546.87 556.58 3549.87 551.462 3549.86 551.478 3552.46 547.005 3552.41 547.103 3554.39 543.506ZM3582.9 854.883 3559.68 893.024 3537.91 854.033C3536.52 851.547 3537.41 848.406 3539.9 847.018 3542.38 845.629 3545.53 846.52 3546.91 849.006L3564.37 880.279 3555.47 880.111 3574.09 849.52C3575.58 847.087 3578.75 846.316 3581.18 847.797 3583.61 849.279 3584.38 852.451 3582.9 854.883Z" fill="#7030A0"/><path d="M1527.21 585.075C1525.91 585.075 1524.63 585.487 1523.38 586.311 1522.12 587.135 1520.72 588.499 1519.18 590.404 1517.64 592.309 1516.39 594.261 1515.41 596.26 1514.44 598.259 1513.62 600.813 1512.94 603.92L1512.58 605.622C1512.17 607.513 1511.97 609.35 1511.97 611.134 1511.97 613.268 1512.43 614.808 1513.37 615.754 1514.3 616.699 1515.84 617.172 1518.01 617.172 1519.11 617.172 1520.17 616.99 1521.17 616.625 1522.17 616.26 1523.19 615.659 1524.23 614.822 1525.27 613.984 1526.25 612.883 1527.19 611.519 1528.12 610.154 1528.98 608.472 1529.76 606.473 1530.54 604.474 1531.15 602.332 1531.58 600.049 1532.02 597.766 1532.23 595.585 1532.23 593.504 1532.23 590.694 1531.83 588.587 1531.04 587.182 1530.24 585.777 1528.96 585.075 1527.21 585.075ZM1520.11 561.771 1522.46 561.771 1515.33 590.141 1515.86 590.303C1518.48 586.79 1520.94 584.251 1523.23 582.683 1525.53 581.116 1527.83 580.333 1530.12 580.333 1533.07 580.333 1535.36 581.454 1536.99 583.697 1538.63 585.939 1539.45 589.1 1539.45 593.18 1539.45 597.638 1538.55 602.022 1536.75 606.331 1534.95 610.641 1532.46 614.058 1529.27 616.585 1526.08 619.111 1522.52 620.374 1518.57 620.374 1514.98 620.374 1511.79 619.496 1509.01 617.74L1505.28 620.374 1502.69 619.725 1513.18 573.403C1513.8 570.647 1514.12 568.648 1514.12 567.405 1514.12 566.27 1513.77 565.473 1513.08 565.014 1512.39 564.554 1511.16 564.298 1509.37 564.244L1509.86 562.136Z" fill-rule="evenodd"/><text fill="#000000" fill-opacity="0" font-family="Arial,Arial_MSFontService,sans-serif" font-size="58.6025" x="1502.69" y="613.049">ğ‘</text><path d="M1543.27 606.784 1551.88 606.784 1554.2 630.97C1555.47 629.004 1556.59 627.227 1557.56 625.638 1558.54 624.049 1559.39 622.59 1560.13 621.26 1560.86 619.929 1561.5 618.698 1562.03 617.566 1562.57 616.434 1563.02 615.352 1563.39 614.32 1563.75 613.287 1564.06 612.274 1564.31 611.282 1564.56 610.289 1564.77 609.266 1564.95 608.214L1565.31 606.784 1570.07 606.784 1572.67 630.97C1575.94 626.502 1578.42 622.595 1580.1 619.249 1581.77 615.903 1582.61 613.228 1582.61 611.222 1582.61 610.348 1582.4 609.733 1581.99 609.375 1581.57 609.018 1580.82 608.79 1579.72 608.69L1580.08 606.784 1588.48 606.784 1589.52 608.512C1588.69 610.676 1587.77 612.811 1586.77 614.915 1585.77 617.02 1584.59 619.209 1583.24 621.483 1581.89 623.757 1580.31 626.164 1578.5 628.706 1576.7 631.248 1574.57 634.028 1572.13 637.046L1568.32 637.046 1565.9 616.375C1564.59 619.393 1562.94 622.61 1560.94 626.025 1558.95 629.441 1556.6 633.114 1553.9 637.046L1549.55 637.046 1546.75 614.558C1546.59 613.367 1546.45 612.409 1546.34 611.684 1546.22 610.959 1546.03 610.393 1545.78 609.986 1545.54 609.579 1545.18 609.286 1544.73 609.107 1544.27 608.929 1543.63 608.79 1542.82 608.69Z" fill-rule="evenodd"/><text fill="#000000" fill-opacity="0" font-family="Arial,Arial_MSFontService,sans-serif" font-size="30.2617" x="1542.82" y="633.263">ğ‘¤</text><path d="M1559.04 560.838 1562.97 560.838 1562.1 570.161 1569.76 564.77 1571.69 568.106 1563.21 572.067 1571.69 576.058 1569.76 579.365 1562.1 573.973 1562.97 583.296 1559.04 583.296 1559.93 573.973 1552.25 579.365 1550.28 576.058 1558.8 572.067 1550.28 568.106 1552.25 564.77 1559.93 570.161Z" fill-rule="evenodd"/><text fill="#000000" fill-opacity="0" font-family="Arial,Arial_MSFontService,sans-serif" font-size="22.458" x="1550.28" y="580.489">âˆ—</text><text font-family="Calibri Light,Calibri Light_MSFontService,sans-serif" font-weight="300" font-size="73" transform="matrix(1 0 0 1 2364.41 499)">Low</text><path d="M2406.83 561.685C2405.53 561.685 2404.26 562.097 2403 562.921 2401.74 563.745 2400.35 565.109 2398.81 567.014 2397.27 568.919 2396.01 570.871 2395.04 572.87 2394.06 574.87 2393.24 577.423 2392.57 580.53L2392.2 582.232C2391.8 584.123 2391.59 585.961 2391.59 587.744 2391.59 589.878 2392.06 591.418 2392.99 592.364 2393.92 593.31 2395.47 593.782 2397.63 593.782 2398.74 593.782 2399.79 593.6 2400.79 593.235 2401.79 592.871 2402.81 592.269 2403.85 591.432 2404.89 590.594 2405.88 589.493 2406.81 588.129 2407.74 586.764 2408.6 585.083 2409.38 583.083 2410.17 581.084 2410.78 578.943 2411.21 576.66 2411.64 574.377 2411.86 572.195 2411.86 570.115 2411.86 567.305 2411.46 565.197 2410.66 563.792 2409.86 562.387 2408.59 561.685 2406.83 561.685ZM2399.74 538.382 2402.09 538.382 2394.96 566.751 2395.48 566.913C2398.1 563.4 2400.56 560.861 2402.86 559.294 2405.16 557.727 2407.45 556.943 2409.75 556.943 2412.69 556.943 2414.98 558.064 2416.62 560.307 2418.25 562.549 2419.07 565.711 2419.07 569.79 2419.07 574.248 2418.17 578.632 2416.38 582.941 2414.58 587.251 2412.09 590.669 2408.9 593.195 2405.71 595.721 2402.14 596.984 2398.2 596.984 2394.6 596.984 2391.42 596.106 2388.63 594.35L2384.91 596.984 2382.31 596.336 2392.81 550.013C2393.43 547.257 2393.74 545.258 2393.74 544.015 2393.74 542.88 2393.4 542.083 2392.71 541.624 2392.02 541.164 2390.78 540.908 2389 540.854L2389.49 538.746Z" fill-rule="evenodd"/><text fill="#000000" fill-opacity="0" font-family="Arial,Arial_MSFontService,sans-serif" font-size="58.6025" x="2382.31" y="589.659">ğ‘</text><path d="M2422.89 583.394 2431.5 583.394 2433.82 607.58C2435.09 605.614 2436.22 603.837 2437.19 602.248 2438.16 600.66 2439.02 599.2 2439.75 597.87 2440.49 596.539 2441.12 595.308 2441.66 594.177 2442.19 593.045 2442.64 591.962 2443.01 590.93 2443.38 589.897 2443.69 588.885 2443.94 587.892 2444.18 586.899 2444.4 585.876 2444.58 584.824L2444.93 583.394 2449.7 583.394 2452.29 607.58C2455.57 603.112 2458.04 599.205 2459.72 595.859 2461.4 592.513 2462.24 589.838 2462.24 587.832 2462.24 586.959 2462.03 586.343 2461.61 585.986 2461.2 585.628 2460.44 585.4 2459.35 585.301L2459.71 583.394 2468.11 583.394 2469.15 585.122C2468.31 587.286 2467.4 589.421 2466.39 591.526 2465.39 593.63 2464.21 595.82 2462.86 598.093 2461.51 600.367 2459.93 602.774 2458.13 605.316 2456.32 607.858 2454.2 610.638 2451.75 613.656L2447.94 613.656 2445.53 592.985C2444.22 596.003 2442.57 599.22 2440.57 602.635 2438.57 606.051 2436.23 609.724 2433.53 613.656L2429.18 613.656 2426.38 591.168C2426.22 589.977 2426.08 589.019 2425.96 588.294 2425.84 587.569 2425.66 587.003 2425.41 586.596 2425.16 586.189 2424.81 585.896 2424.35 585.718 2423.89 585.539 2423.26 585.4 2422.45 585.301Z" fill-rule="evenodd"/><text fill="#000000" fill-opacity="0" font-family="Arial,Arial_MSFontService,sans-serif" font-size="30.2617" x="2422.45" y="609.873">ğ‘¤</text><path d="M2438.66 537.448 2442.59 537.448 2441.73 546.771 2449.38 541.38 2451.32 544.716 2442.83 548.677 2451.32 552.669 2449.38 555.975 2441.73 550.584 2442.59 559.906 2438.66 559.906 2439.55 550.584 2431.87 555.975 2429.9 552.669 2438.42 548.677 2429.9 544.716 2431.87 541.38 2439.55 546.771Z" fill-rule="evenodd"/><text fill="#000000" fill-opacity="0" font-family="Arial,Arial_MSFontService,sans-serif" font-size="22.458" x="2429.9" y="557.099">âˆ—</text><text font-family="Calibri Light,Calibri Light_MSFontService,sans-serif" font-weight="300" font-size="73" transform="matrix(1 0 0 1 2865.42 506)">High</text><path d="M2914.9 568.703C2913.6 568.703 2912.33 569.115 2911.07 569.939 2909.81 570.763 2908.42 572.128 2906.88 574.032 2905.34 575.937 2904.08 577.889 2903.11 579.889 2902.13 581.888 2901.31 584.441 2900.64 587.548L2900.27 589.25C2899.86 591.142 2899.66 592.979 2899.66 594.762 2899.66 596.897 2900.13 598.437 2901.06 599.382 2901.99 600.328 2903.54 600.801 2905.7 600.801 2906.81 600.801 2907.86 600.618 2908.86 600.254 2909.86 599.889 2910.88 599.288 2911.92 598.45 2912.96 597.613 2913.95 596.512 2914.88 595.147 2915.81 593.783 2916.67 592.101 2917.45 590.102 2918.24 588.102 2918.85 585.961 2919.28 583.678 2919.71 581.395 2919.93 579.213 2919.93 577.133 2919.93 574.323 2919.53 572.215 2918.73 570.81 2917.93 569.406 2916.66 568.703 2914.9 568.703ZM2907.81 545.4 2910.16 545.4 2903.03 573.769 2903.55 573.931C2906.17 570.419 2908.63 567.879 2910.93 566.312 2913.23 564.745 2915.52 563.961 2917.82 563.961 2920.76 563.961 2923.05 565.083 2924.69 567.325 2926.32 569.568 2927.14 572.729 2927.14 576.809 2927.14 581.267 2926.24 585.65 2924.44 589.96 2922.65 594.269 2920.16 597.687 2916.97 600.213 2913.78 602.739 2910.21 604.002 2906.27 604.002 2902.67 604.002 2899.49 603.124 2896.7 601.368L2892.98 604.002 2890.38 603.354 2900.88 557.031C2901.5 554.275 2901.81 552.276 2901.81 551.033 2901.81 549.898 2901.47 549.101 2900.78 548.642 2900.09 548.183 2898.85 547.926 2897.07 547.872L2897.55 545.765Z" fill-rule="evenodd"/><text fill="#000000" fill-opacity="0" font-family="Arial,Arial_MSFontService,sans-serif" font-size="58.6025" x="2890.38" y="596.677">ğ‘</text><path d="M2930.96 590.413 2939.57 590.413 2941.89 614.598C2943.16 612.632 2944.29 610.855 2945.26 609.267 2946.23 607.678 2947.09 606.219 2947.82 604.888 2948.55 603.558 2949.19 602.327 2949.73 601.195 2950.26 600.063 2950.71 598.981 2951.08 597.948 2951.45 596.916 2951.76 595.903 2952.01 594.91 2952.25 593.917 2952.47 592.895 2952.65 591.842L2953 590.413 2957.77 590.413 2960.36 614.598C2963.64 610.13 2966.11 606.224 2967.79 602.878 2969.47 599.532 2970.31 596.856 2970.31 594.851 2970.31 593.977 2970.1 593.361 2969.68 593.004 2969.27 592.646 2968.51 592.418 2967.42 592.319L2967.78 590.413 2976.18 590.413 2977.22 592.14C2976.38 594.304 2975.47 596.439 2974.46 598.544 2973.46 600.649 2972.28 602.838 2970.93 605.112 2969.58 607.385 2968 609.793 2966.2 612.334 2964.39 614.876 2962.27 617.656 2959.82 620.674L2956.01 620.674 2953.6 600.003C2952.29 603.022 2950.64 606.238 2948.64 609.654 2946.64 613.069 2944.3 616.743 2941.6 620.674L2937.25 620.674 2934.45 598.186C2934.29 596.995 2934.15 596.037 2934.03 595.312 2933.91 594.587 2933.73 594.021 2933.48 593.614 2933.23 593.207 2932.88 592.914 2932.42 592.736 2931.96 592.557 2931.33 592.418 2930.52 592.319Z" fill-rule="evenodd"/><text fill="#000000" fill-opacity="0" font-family="Arial,Arial_MSFontService,sans-serif" font-size="30.2617" x="2930.52" y="616.892">ğ‘¤</text><path d="M2946.73 544.467 2950.66 544.467 2949.8 553.789 2957.45 548.398 2959.39 551.734 2950.9 555.696 2959.39 559.687 2957.45 562.993 2949.8 557.602 2950.66 566.925 2946.73 566.925 2947.62 557.602 2939.94 562.993 2937.97 559.687 2946.49 555.696 2937.97 551.734 2939.94 548.398 2947.62 553.789Z" fill-rule="evenodd"/><text fill="#000000" fill-opacity="0" font-family="Arial,Arial_MSFontService,sans-serif" font-size="22.458" x="2937.97" y="564.117">âˆ—</text><text font-family="Calibri Light,Calibri Light_MSFontService,sans-serif" font-weight="300" font-size="73" transform="matrix(1 0 0 1 3752.11 483)">Low</text><path d="M3794.53 545.313C3793.23 545.313 3791.95 545.725 3790.7 546.549 3789.44 547.373 3788.04 548.738 3786.5 550.643 3784.96 552.547 3783.7 554.5 3782.73 556.499 3781.76 558.498 3780.94 561.051 3780.26 564.159L3779.9 565.861C3779.49 567.752 3779.29 569.589 3779.29 571.372 3779.29 573.507 3779.75 575.047 3780.69 575.992 3781.62 576.938 3783.16 577.411 3785.33 577.411 3786.43 577.411 3787.49 577.229 3788.49 576.864 3789.49 576.499 3790.51 575.898 3791.55 575.06 3792.59 574.223 3793.57 573.122 3794.51 571.757 3795.44 570.393 3796.3 568.711 3797.08 566.712 3797.86 564.712 3798.47 562.571 3798.9 560.288 3799.33 558.005 3799.55 555.823 3799.55 553.743 3799.55 550.933 3799.15 548.826 3798.36 547.421 3797.56 546.016 3796.28 545.313 3794.53 545.313ZM3787.43 522.01 3789.78 522.01 3782.65 550.379 3783.18 550.541C3785.8 547.029 3788.26 544.489 3790.55 542.922 3792.85 541.355 3795.15 540.572 3797.44 540.572 3800.39 540.572 3802.68 541.693 3804.31 543.935 3805.95 546.178 3806.76 549.339 3806.76 553.419 3806.76 557.877 3805.87 562.26 3804.07 566.57 3802.27 570.879 3799.78 574.297 3796.59 576.823 3793.4 579.349 3789.84 580.613 3785.89 580.613 3782.3 580.613 3779.11 579.734 3776.33 577.978L3772.6 580.613 3770.01 579.964 3780.5 533.641C3781.12 530.886 3781.44 528.886 3781.44 527.643 3781.44 526.509 3781.09 525.712 3780.4 525.252 3779.71 524.793 3778.48 524.536 3776.69 524.482L3777.18 522.375Z" fill-rule="evenodd"/><text fill="#000000" fill-opacity="0" font-family="Arial,Arial_MSFontService,sans-serif" font-size="58.6025" x="3770.01" y="573.287">ğ‘</text><path d="M3810.59 567.023 3819.19 567.023 3821.52 591.208C3822.79 589.242 3823.91 587.465 3824.88 585.877 3825.86 584.288 3826.71 582.829 3827.45 581.498 3828.18 580.168 3828.82 578.937 3829.35 577.805 3829.89 576.673 3830.34 575.591 3830.71 574.558 3831.07 573.526 3831.38 572.513 3831.63 571.52 3831.88 570.527 3832.09 569.505 3832.27 568.452L3832.63 567.023 3837.39 567.023 3839.98 591.208C3843.26 586.74 3845.74 582.834 3847.42 579.488 3849.09 576.142 3849.93 573.466 3849.93 571.461 3849.93 570.587 3849.72 569.971 3849.31 569.614 3848.89 569.257 3848.14 569.028 3847.04 568.929L3847.4 567.023 3855.8 567.023 3856.84 568.75C3856.01 570.915 3855.09 573.049 3854.09 575.154 3853.09 577.259 3851.91 579.448 3850.56 581.722 3849.21 583.995 3847.63 586.403 3845.82 588.945 3844.02 591.486 3841.89 594.266 3839.45 597.284L3835.64 597.284 3833.22 576.614C3831.91 579.632 3830.26 582.849 3828.26 586.264 3826.27 589.679 3823.92 593.353 3821.22 597.284L3816.87 597.284 3814.07 574.797C3813.91 573.605 3813.77 572.647 3813.65 571.922 3813.54 571.198 3813.35 570.632 3813.1 570.225 3812.86 569.818 3812.5 569.525 3812.05 569.346 3811.59 569.167 3810.95 569.028 3810.14 568.929Z" fill-rule="evenodd"/><text fill="#000000" fill-opacity="0" font-family="Arial,Arial_MSFontService,sans-serif" font-size="30.2617" x="3810.14" y="593.502">ğ‘¤</text><path d="M3826.36 521.077 3830.29 521.077 3829.42 530.4 3837.08 525.008 3839.01 528.344 3830.53 532.306 3839.01 536.297 3837.08 539.603 3829.42 534.212 3830.29 543.535 3826.36 543.535 3827.25 534.212 3819.56 539.603 3817.6 536.297 3826.12 532.306 3817.6 528.344 3819.56 525.008 3827.25 530.4Z" fill-rule="evenodd"/><text fill="#000000" fill-opacity="0" font-family="Arial,Arial_MSFontService,sans-serif" font-size="22.458" x="3817.6" y="540.728">âˆ—</text><text font-family="Calibri Light,Calibri Light_MSFontService,sans-serif" font-weight="300" font-size="73" transform="matrix(1 0 0 1 1459.03 1468)">High</text><path d="M1516.69 1530.66C1515.39 1530.66 1514.12 1531.07 1512.86 1531.9 1511.61 1532.72 1510.21 1534.09 1508.67 1535.99 1507.13 1537.9 1505.87 1539.85 1504.9 1541.85 1503.93 1543.85 1503.1 1546.4 1502.43 1549.51L1502.06 1551.21C1501.66 1553.1 1501.45 1554.94 1501.45 1556.72 1501.45 1558.85 1501.92 1560.39 1502.85 1561.34 1503.78 1562.29 1505.33 1562.76 1507.49 1562.76 1508.6 1562.76 1509.65 1562.58 1510.65 1562.21 1511.65 1561.85 1512.67 1561.25 1513.71 1560.41 1514.75 1559.57 1515.74 1558.47 1516.67 1557.11 1517.6 1555.74 1518.46 1554.06 1519.24 1552.06 1520.03 1550.06 1520.64 1547.92 1521.07 1545.64 1521.5 1543.35 1521.72 1541.17 1521.72 1539.09 1521.72 1536.28 1521.32 1534.17 1520.52 1532.77 1519.72 1531.36 1518.45 1530.66 1516.69 1530.66ZM1509.6 1507.36 1511.95 1507.36 1504.82 1535.73 1505.34 1535.89C1507.96 1532.38 1510.42 1529.84 1512.72 1528.27 1515.02 1526.7 1517.31 1525.92 1519.61 1525.92 1522.55 1525.92 1524.84 1527.04 1526.48 1529.28 1528.11 1531.53 1528.93 1534.69 1528.93 1538.77 1528.93 1543.22 1528.03 1547.61 1526.24 1551.92 1524.44 1556.23 1521.95 1559.65 1518.76 1562.17 1515.57 1564.7 1512 1565.96 1508.06 1565.96 1504.47 1565.96 1501.28 1565.08 1498.49 1563.33L1494.77 1565.96 1492.17 1565.31 1502.67 1518.99C1503.29 1516.23 1503.6 1514.23 1503.6 1512.99 1503.6 1511.86 1503.26 1511.06 1502.57 1510.6 1501.88 1510.14 1500.64 1509.88 1498.86 1509.83L1499.35 1507.72Z" fill-rule="evenodd"/><text fill="#000000" fill-opacity="0" font-family="Arial,Arial_MSFontService,sans-serif" font-size="58.6025" x="1492.17" y="1558.64">ğ‘</text><path d="M1551.73 1554.69C1550.63 1554.69 1549.56 1554.96 1548.49 1555.5 1547.43 1556.03 1546.43 1556.79 1545.49 1557.78 1544.54 1558.76 1543.68 1559.95 1542.91 1561.35 1542.14 1562.75 1541.49 1564.31 1540.97 1566.04 1543.5 1566.02 1545.66 1565.82 1547.48 1565.45 1549.3 1565.07 1550.79 1564.55 1551.95 1563.9 1553.11 1563.24 1553.96 1562.47 1554.51 1561.57 1555.06 1560.68 1555.33 1559.7 1555.33 1558.63 1555.33 1557.39 1555.02 1556.43 1554.41 1555.74 1553.79 1555.04 1552.9 1554.69 1551.73 1554.69ZM1553.01 1551.75C1555.55 1551.75 1557.48 1552.3 1558.8 1553.41 1560.12 1554.53 1560.78 1556.1 1560.78 1558.15 1560.78 1565.34 1553.98 1568.93 1540.38 1568.93 1540.28 1569.45 1540.2 1570.01 1540.14 1570.61 1540.08 1571.22 1540.05 1571.88 1540.05 1572.59 1540.05 1574.76 1540.49 1576.34 1541.38 1577.33 1542.26 1578.32 1543.63 1578.82 1545.5 1578.82 1546.47 1578.82 1547.4 1578.72 1548.27 1578.51 1549.14 1578.3 1550 1577.98 1550.85 1577.54 1551.69 1577.1 1552.54 1576.54 1553.39 1575.86 1554.25 1575.17 1555.14 1574.35 1556.07 1573.4L1558.31 1575.81C1556.01 1578.1 1553.71 1579.81 1551.41 1580.96 1549.12 1582.12 1546.65 1582.69 1544.01 1582.69 1542.46 1582.69 1541.09 1582.46 1539.89 1581.99 1538.69 1581.53 1537.67 1580.85 1536.85 1579.95 1536.02 1579.06 1535.4 1577.97 1534.97 1576.69 1534.54 1575.41 1534.33 1573.96 1534.33 1572.36 1534.33 1571.22 1534.43 1570.05 1534.63 1568.83 1534.83 1567.61 1535.14 1566.38 1535.55 1565.16 1535.97 1563.94 1536.49 1562.75 1537.1 1561.59 1537.72 1560.43 1538.44 1559.34 1539.28 1558.33 1540.94 1556.26 1542.95 1554.65 1545.31 1553.49 1547.66 1552.33 1550.23 1551.75 1553.01 1551.75Z" fill-rule="evenodd"/><text fill="#000000" fill-opacity="0" font-family="Arial,Arial_MSFontService,sans-serif" font-size="30.9468" x="1534.33" y="1578.82">ğ‘’</text><path d="M1548.52 1506.42 1552.45 1506.42 1551.59 1515.75 1559.24 1510.36 1561.18 1513.69 1552.69 1517.65 1561.18 1521.65 1559.24 1524.95 1551.59 1519.56 1552.45 1528.88 1548.52 1528.88 1549.42 1519.56 1541.73 1524.95 1539.76 1521.65 1548.28 1517.65 1539.76 1513.69 1541.73 1510.36 1549.42 1515.75Z" fill-rule="evenodd"/><text fill="#000000" fill-opacity="0" font-family="Arial,Arial_MSFontService,sans-serif" font-size="22.458" x="1539.76" y="1526.08">âˆ—</text><text font-family="Calibri Light,Calibri Light_MSFontService,sans-serif" font-weight="300" font-size="73" transform="matrix(1 0 0 1 2345.72 1444)">Low</text><path d="M2396.32 1507.27C2395.02 1507.27 2393.74 1507.68 2392.49 1508.51 2391.23 1509.33 2389.83 1510.7 2388.29 1512.6 2386.75 1514.51 2385.5 1516.46 2384.52 1518.46 2383.55 1520.46 2382.73 1523.01 2382.05 1526.12L2381.69 1527.82C2381.28 1529.71 2381.08 1531.55 2381.08 1533.33 2381.08 1535.46 2381.54 1537.01 2382.48 1537.95 2383.41 1538.9 2384.96 1539.37 2387.12 1539.37 2388.22 1539.37 2389.28 1539.19 2390.28 1538.82 2391.28 1538.46 2392.3 1537.86 2393.34 1537.02 2394.38 1536.18 2395.36 1535.08 2396.3 1533.72 2397.23 1532.35 2398.09 1530.67 2398.87 1528.67 2399.65 1526.67 2400.26 1524.53 2400.69 1522.25 2401.13 1519.96 2401.34 1517.78 2401.34 1515.7 2401.34 1512.89 2400.94 1510.78 2400.15 1509.38 2399.35 1507.97 2398.07 1507.27 2396.32 1507.27ZM2389.22 1483.97 2391.57 1483.97 2384.44 1512.34 2384.97 1512.5C2387.59 1508.99 2390.05 1506.45 2392.34 1504.88 2394.64 1503.31 2396.94 1502.53 2399.23 1502.53 2402.18 1502.53 2404.47 1503.65 2406.1 1505.89 2407.74 1508.14 2408.56 1511.3 2408.56 1515.38 2408.56 1519.83 2407.66 1524.22 2405.86 1528.53 2404.06 1532.84 2401.57 1536.26 2398.38 1538.78 2395.2 1541.31 2391.63 1542.57 2387.68 1542.57 2384.09 1542.57 2380.9 1541.69 2378.12 1539.94L2374.39 1542.57 2371.8 1541.92 2382.29 1495.6C2382.92 1492.84 2383.23 1490.84 2383.23 1489.6 2383.23 1488.47 2382.88 1487.67 2382.19 1487.21 2381.5 1486.75 2380.27 1486.49 2378.48 1486.44L2378.97 1484.33Z" fill-rule="evenodd"/><text fill="#000000" fill-opacity="0" font-family="Arial,Arial_MSFontService,sans-serif" font-size="58.6025" x="2371.8" y="1535.25">ğ‘</text><path d="M2431.35 1531.3C2430.26 1531.3 2429.18 1531.57 2428.12 1532.11 2427.06 1532.64 2426.05 1533.4 2425.11 1534.39 2424.17 1535.37 2423.31 1536.56 2422.53 1537.96 2421.76 1539.36 2421.11 1540.92 2420.6 1542.65 2423.12 1542.63 2425.29 1542.43 2427.11 1542.06 2428.92 1541.68 2430.41 1541.16 2431.57 1540.51 2432.74 1539.85 2433.59 1539.08 2434.14 1538.18 2434.68 1537.29 2434.95 1536.31 2434.95 1535.24 2434.95 1534 2434.65 1533.04 2434.03 1532.35 2433.42 1531.65 2432.52 1531.3 2431.35 1531.3ZM2432.63 1528.36C2435.17 1528.36 2437.1 1528.91 2438.42 1530.02 2439.75 1531.14 2440.41 1532.71 2440.41 1534.76 2440.41 1541.95 2433.6 1545.54 2420 1545.54 2419.9 1546.06 2419.82 1546.62 2419.76 1547.22 2419.7 1547.83 2419.68 1548.49 2419.68 1549.21 2419.68 1551.37 2420.12 1552.95 2421 1553.94 2421.88 1554.93 2423.26 1555.43 2425.13 1555.43 2426.1 1555.43 2427.02 1555.33 2427.9 1555.12 2428.77 1554.91 2429.63 1554.59 2430.47 1554.15 2431.32 1553.71 2432.17 1553.15 2433.02 1552.47 2433.87 1551.78 2434.77 1550.96 2435.7 1550.01L2437.93 1552.42C2435.63 1554.71 2433.33 1556.42 2431.04 1557.57 2428.74 1558.73 2426.28 1559.3 2423.64 1559.3 2422.09 1559.3 2420.71 1559.07 2419.51 1558.6 2418.31 1558.14 2417.3 1557.46 2416.47 1556.56 2415.65 1555.67 2415.02 1554.58 2414.6 1553.3 2414.17 1552.02 2413.96 1550.58 2413.96 1548.97 2413.96 1547.83 2414.06 1546.66 2414.25 1545.44 2414.45 1544.22 2414.76 1542.99 2415.18 1541.77 2415.59 1540.55 2416.11 1539.36 2416.73 1538.2 2417.34 1537.04 2418.07 1535.95 2418.9 1534.94 2420.57 1532.87 2422.58 1531.26 2424.93 1530.1 2427.29 1528.94 2429.85 1528.36 2432.63 1528.36Z" fill-rule="evenodd"/><text fill="#000000" fill-opacity="0" font-family="Arial,Arial_MSFontService,sans-serif" font-size="30.9468" x="2413.96" y="1555.43">ğ‘’</text><path d="M2428.15 1483.04 2432.08 1483.04 2431.21 1492.36 2438.87 1486.97 2440.81 1490.3 2432.32 1494.26 2440.81 1498.26 2438.87 1501.56 2431.21 1496.17 2432.08 1505.49 2428.15 1505.49 2429.04 1496.17 2421.36 1501.56 2419.39 1498.26 2427.91 1494.26 2419.39 1490.3 2421.36 1486.97 2429.04 1492.36Z" fill-rule="evenodd"/><text fill="#000000" fill-opacity="0" font-family="Arial,Arial_MSFontService,sans-serif" font-size="22.458" x="2419.39" y="1502.69">âˆ—</text><text font-family="Calibri Light,Calibri Light_MSFontService,sans-serif" font-weight="300" font-size="73" transform="matrix(1 0 0 1 2846.73 1452)">High</text><path d="M2904.39 1514.29C2903.09 1514.29 2901.81 1514.7 2900.56 1515.53 2899.3 1516.35 2897.9 1517.71 2896.36 1519.62 2894.82 1521.52 2893.57 1523.48 2892.59 1525.48 2891.62 1527.47 2890.8 1530.03 2890.12 1533.14L2889.76 1534.84C2889.35 1536.73 2889.15 1538.57 2889.15 1540.35 2889.15 1542.48 2889.61 1544.02 2890.55 1544.97 2891.48 1545.91 2893.03 1546.39 2895.19 1546.39 2896.29 1546.39 2897.35 1546.21 2898.35 1545.84 2899.35 1545.48 2900.37 1544.87 2901.41 1544.04 2902.45 1543.2 2903.43 1542.1 2904.37 1540.73 2905.3 1539.37 2906.16 1537.69 2906.94 1535.69 2907.72 1533.69 2908.33 1531.55 2908.76 1529.26 2909.2 1526.98 2909.41 1524.8 2909.41 1522.72 2909.41 1519.91 2909.01 1517.8 2908.22 1516.4 2907.42 1514.99 2906.14 1514.29 2904.39 1514.29ZM2897.29 1490.99 2899.64 1490.99 2892.51 1519.36 2893.04 1519.52C2895.66 1516.01 2898.12 1513.47 2900.41 1511.9 2902.71 1510.33 2905.01 1509.55 2907.3 1509.55 2910.25 1509.55 2912.54 1510.67 2914.17 1512.91 2915.81 1515.15 2916.63 1518.32 2916.63 1522.4 2916.63 1526.85 2915.73 1531.24 2913.93 1535.55 2912.13 1539.86 2909.64 1543.27 2906.45 1545.8 2903.26 1548.33 2899.7 1549.59 2895.75 1549.59 2892.16 1549.59 2888.97 1548.71 2886.19 1546.95L2882.46 1549.59 2879.87 1548.94 2890.36 1502.62C2890.99 1499.86 2891.3 1497.86 2891.3 1496.62 2891.3 1495.49 2890.95 1494.69 2890.26 1494.23 2889.57 1493.77 2888.34 1493.51 2886.55 1493.46L2887.04 1491.35Z" fill-rule="evenodd"/><text fill="#000000" fill-opacity="0" font-family="Arial,Arial_MSFontService,sans-serif" font-size="58.6025" x="2879.87" y="1542.26">ğ‘</text><path d="M2939.42 1538.32C2938.33 1538.32 2937.25 1538.59 2936.19 1539.13 2935.13 1539.66 2934.12 1540.42 2933.18 1541.41 2932.24 1542.39 2931.38 1543.58 2930.6 1544.98 2929.83 1546.38 2929.18 1547.94 2928.67 1549.67 2931.19 1549.65 2933.36 1549.45 2935.18 1549.07 2936.99 1548.7 2938.48 1548.18 2939.64 1547.53 2940.81 1546.87 2941.66 1546.1 2942.21 1545.2 2942.75 1544.31 2943.02 1543.33 2943.02 1542.25 2943.02 1541.02 2942.72 1540.06 2942.1 1539.36 2941.49 1538.67 2940.59 1538.32 2939.42 1538.32ZM2940.7 1535.37C2943.24 1535.37 2945.17 1535.93 2946.49 1537.04 2947.82 1538.15 2948.48 1539.73 2948.48 1541.78 2948.48 1548.97 2941.67 1552.56 2928.07 1552.56 2927.97 1553.08 2927.89 1553.64 2927.83 1554.24 2927.77 1554.85 2927.74 1555.51 2927.74 1556.22 2927.74 1558.39 2928.19 1559.97 2929.07 1560.96 2929.95 1561.95 2931.33 1562.45 2933.2 1562.45 2934.17 1562.45 2935.09 1562.34 2935.97 1562.14 2936.84 1561.93 2937.7 1561.6 2938.54 1561.17 2939.39 1560.73 2940.23 1560.17 2941.09 1559.48 2941.94 1558.8 2942.84 1557.98 2943.77 1557.03L2946 1559.44C2943.7 1561.72 2941.4 1563.44 2939.11 1564.59 2936.81 1565.74 2934.35 1566.32 2931.71 1566.32 2930.16 1566.32 2928.78 1566.09 2927.58 1565.62 2926.38 1565.15 2925.37 1564.47 2924.54 1563.58 2923.72 1562.69 2923.09 1561.6 2922.67 1560.32 2922.24 1559.04 2922.03 1557.59 2922.03 1555.99 2922.03 1554.85 2922.13 1553.68 2922.32 1552.46 2922.52 1551.23 2922.83 1550.01 2923.25 1548.79 2923.66 1547.57 2924.18 1546.38 2924.8 1545.22 2925.41 1544.06 2926.14 1542.97 2926.97 1541.96 2928.64 1539.89 2930.65 1538.28 2933 1537.12 2935.35 1535.95 2937.92 1535.37 2940.7 1535.37Z" fill-rule="evenodd"/><text fill="#000000" fill-opacity="0" font-family="Arial,Arial_MSFontService,sans-serif" font-size="30.9468" x="2922.03" y="1562.45">ğ‘’</text><path d="M2936.22 1490.05 2940.15 1490.05 2939.28 1499.38 2946.94 1493.98 2948.88 1497.32 2940.39 1501.28 2948.88 1505.27 2946.94 1508.58 2939.28 1503.19 2940.15 1512.51 2936.22 1512.51 2937.11 1503.19 2929.43 1508.58 2927.46 1505.27 2935.98 1501.28 2927.46 1497.32 2929.43 1493.98 2937.11 1499.38Z" fill-rule="evenodd"/><text fill="#000000" fill-opacity="0" font-family="Arial,Arial_MSFontService,sans-serif" font-size="22.458" x="2927.46" y="1509.7">âˆ—</text><text font-family="Calibri Light,Calibri Light_MSFontService,sans-serif" font-weight="300" font-size="73" transform="matrix(1 0 0 1 3733.41 1428)">Low</text><path d="M3784.01 1490.9C3782.71 1490.9 3781.44 1491.31 3780.18 1492.14 3778.93 1492.96 3777.53 1494.32 3775.99 1496.23 3774.45 1498.13 3773.19 1500.09 3772.22 1502.09 3771.25 1504.08 3770.42 1506.64 3769.75 1509.75L3769.38 1511.45C3768.98 1513.34 3768.77 1515.18 3768.77 1516.96 3768.77 1519.09 3769.24 1520.63 3770.17 1521.58 3771.1 1522.52 3772.65 1523 3774.81 1523 3775.92 1523 3776.97 1522.82 3777.97 1522.45 3778.97 1522.09 3779.99 1521.48 3781.03 1520.65 3782.07 1519.81 3783.06 1518.71 3783.99 1517.34 3784.92 1515.98 3785.78 1514.3 3786.56 1512.3 3787.35 1510.3 3787.96 1508.16 3788.39 1505.87 3788.82 1503.59 3789.04 1501.41 3789.04 1499.33 3789.04 1496.52 3788.64 1494.41 3787.84 1493.01 3787.04 1491.6 3785.77 1490.9 3784.01 1490.9ZM3776.92 1467.6 3779.27 1467.6 3772.14 1495.97 3772.66 1496.13C3775.28 1492.62 3777.74 1490.08 3780.04 1488.51 3782.34 1486.94 3784.63 1486.16 3786.93 1486.16 3789.87 1486.16 3792.16 1487.28 3793.8 1489.52 3795.43 1491.76 3796.25 1494.93 3796.25 1499.01 3796.25 1503.46 3795.35 1507.85 3793.56 1512.16 3791.76 1516.47 3789.27 1519.88 3786.08 1522.41 3782.89 1524.94 3779.32 1526.2 3775.38 1526.2 3771.79 1526.2 3768.6 1525.32 3765.81 1523.57L3762.09 1526.2 3759.49 1525.55 3769.99 1479.23C3770.61 1476.47 3770.92 1474.47 3770.92 1473.23 3770.92 1472.1 3770.58 1471.3 3769.89 1470.84 3769.2 1470.38 3767.96 1470.12 3766.18 1470.07L3766.67 1467.96Z" fill-rule="evenodd"/><text fill="#000000" fill-opacity="0" font-family="Arial,Arial_MSFontService,sans-serif" font-size="58.6025" x="3759.49" y="1518.87">ğ‘</text><path d="M3819.05 1514.93C3817.95 1514.93 3816.88 1515.2 3815.81 1515.74 3814.75 1516.27 3813.75 1517.03 3812.81 1518.02 3811.86 1519 3811 1520.19 3810.23 1521.59 3809.45 1522.99 3808.81 1524.55 3808.29 1526.28 3810.81 1526.26 3812.98 1526.06 3814.8 1525.69 3816.62 1525.31 3818.11 1524.79 3819.27 1524.14 3820.43 1523.48 3821.28 1522.71 3821.83 1521.81 3822.38 1520.92 3822.65 1519.94 3822.65 1518.86 3822.65 1517.63 3822.34 1516.67 3821.73 1515.98 3821.11 1515.28 3820.22 1514.93 3819.05 1514.93ZM3820.33 1511.98C3822.87 1511.98 3824.8 1512.54 3826.12 1513.65 3827.44 1514.76 3828.1 1516.34 3828.1 1518.39 3828.1 1525.58 3821.3 1529.17 3807.7 1529.17 3807.6 1529.69 3807.52 1530.25 3807.46 1530.85 3807.4 1531.46 3807.37 1532.12 3807.37 1532.83 3807.37 1535 3807.81 1536.58 3808.7 1537.57 3809.58 1538.56 3810.95 1539.06 3812.82 1539.06 3813.79 1539.06 3814.72 1538.95 3815.59 1538.75 3816.46 1538.54 3817.32 1538.21 3818.17 1537.78 3819.01 1537.34 3819.86 1536.78 3820.71 1536.1 3821.57 1535.41 3822.46 1534.59 3823.39 1533.64L3825.63 1536.05C3823.32 1538.33 3821.03 1540.05 3818.73 1541.2 3816.44 1542.35 3813.97 1542.93 3811.33 1542.93 3809.78 1542.93 3808.41 1542.7 3807.21 1542.23 3806 1541.76 3804.99 1541.08 3804.17 1540.19 3803.34 1539.3 3802.72 1538.21 3802.29 1536.93 3801.86 1535.65 3801.65 1534.2 3801.65 1532.6 3801.65 1531.46 3801.75 1530.29 3801.95 1529.07 3802.15 1527.84 3802.46 1526.62 3802.87 1525.4 3803.29 1524.18 3803.81 1522.99 3804.42 1521.83 3805.04 1520.67 3805.76 1519.58 3806.6 1518.57 3808.26 1516.5 3810.27 1514.89 3812.63 1513.73 3814.98 1512.56 3817.55 1511.98 3820.33 1511.98Z" fill-rule="evenodd"/><text fill="#000000" fill-opacity="0" font-family="Arial,Arial_MSFontService,sans-serif" font-size="30.9468" x="3801.65" y="1539.06">ğ‘’</text><path d="M3815.84 1466.66 3819.77 1466.66 3818.91 1475.99 3826.56 1470.6 3828.5 1473.93 3820.01 1477.89 3828.5 1481.88 3826.56 1485.19 3818.91 1479.8 3819.77 1489.12 3815.84 1489.12 3816.73 1479.8 3809.05 1485.19 3807.08 1481.88 3815.6 1477.89 3807.08 1473.93 3809.05 1470.6 3816.73 1475.99Z" fill-rule="evenodd"/><text fill="#000000" fill-opacity="0" font-family="Arial,Arial_MSFontService,sans-serif" font-size="22.458" x="3807.08" y="1486.31">âˆ—</text></g></svg>